<?xml version="1.0" encoding="UTF-8" standalone="no"?>
<!DOCTYPE svg PUBLIC "-//W3C//DTD SVG 1.1//EN"
 "http://www.w3.org/Graphics/SVG/1.1/DTD/svg11.dtd">
<!-- Generated by graphviz version 2.43.0 (0)
 -->
<!-- Title: EndoscopeViewer Pages: 1 -->
<svg width="223pt" height="152pt"
 viewBox="0.00 0.00 222.50 152.00" xmlns="http://www.w3.org/2000/svg" xmlns:xlink="http://www.w3.org/1999/xlink">
<g id="graph0" class="graph" transform="scale(1 1) rotate(0) translate(4 148)">
<title>EndoscopeViewer</title>
<!-- Node1 -->
<g id="node1" class="node">
<title>Node1</title>
<g id="a_node1"><a xlink:title=" ">
<polygon fill="#bfbfbf" stroke="black" points="26,-0.5 26,-19.5 129,-19.5 129,-0.5 26,-0.5"/>
<text text-anchor="middle" x="77.5" y="-7.5" font-family="Helvetica,sans-Serif" font-size="10.00">EndoscopeViewer</text>
</a>
</g>
</g>
<!-- Node2 -->
<g id="node2" class="node">
<title>Node2</title>
<g id="a_node2"><a xlink:title=" ">
<polygon fill="none" stroke="#bfbfbf" points="0,-67.5 0,-86.5 87,-86.5 87,-67.5 0,-67.5"/>
<text text-anchor="middle" x="43.5" y="-74.5" font-family="Helvetica,sans-Serif" font-size="10.00">QMainWindow</text>
</a>
</g>
</g>
<!-- Node2&#45;&gt;Node1 -->
<g id="edge1" class="edge">
<title>Node2&#45;&gt;Node1</title>
<path fill="none" stroke="midnightblue" d="M52.83,-58.16C59.39,-45.63 67.87,-29.41 72.99,-19.63"/>
<polygon fill="midnightblue" stroke="midnightblue" points="49.62,-56.75 48.09,-67.23 55.82,-60 49.62,-56.75"/>
</g>
<!-- Node3 -->
<g id="node3" class="node">
<title>Node3</title>
<g id="a_node3"><a xlink:href="classVideoCapture.html" target="_top" xlink:title=" ">
<polygon fill="none" stroke="black" points="105,-67.5 105,-86.5 188,-86.5 188,-67.5 105,-67.5"/>
<text text-anchor="middle" x="146.5" y="-74.5" font-family="Helvetica,sans-Serif" font-size="10.00">VideoCapture</text>
</a>
</g>
</g>
<!-- Node3&#45;&gt;Node1 -->
<g id="edge2" class="edge">
<title>Node3&#45;&gt;Node1</title>
<path fill="none" stroke="#9a32cd" stroke-dasharray="5,2" d="M129.89,-60.36C116.33,-47.58 97.66,-29.99 86.66,-19.63"/>
<polygon fill="#9a32cd" stroke="#9a32cd" points="127.52,-62.92 137.19,-67.23 132.32,-57.83 127.52,-62.92"/>
<text text-anchor="middle" x="165" y="-41" font-family="Helvetica,sans-Serif" font-size="10.00"> opencv_video_cap_</text>
</g>
<!-- Node4 -->
<g id="node4" class="node">
<title>Node4</title>
<g id="a_node4"><a xlink:title=" ">
<polygon fill="none" stroke="#bfbfbf" points="117.5,-124.5 117.5,-143.5 175.5,-143.5 175.5,-124.5 117.5,-124.5"/>
<text text-anchor="middle" x="146.5" y="-131.5" font-family="Helvetica,sans-Serif" font-size="10.00">QThread</text>
</a>
</g>
</g>
<!-- Node4&#45;&gt;Node3 -->
<g id="edge3" class="edge">
<title>Node4&#45;&gt;Node3</title>
<path fill="none" stroke="midnightblue" d="M146.5,-114.12C146.5,-104.82 146.5,-94.06 146.5,-86.71"/>
<polygon fill="midnightblue" stroke="midnightblue" points="143,-114.41 146.5,-124.41 150,-114.41 143,-114.41"/>
</g>
</g>
</svg>
