<?xml version="1.0" encoding="UTF-8" standalone="no"?>
<!DOCTYPE svg PUBLIC "-//W3C//DTD SVG 1.1//EN"
 "http://www.w3.org/Graphics/SVG/1.1/DTD/svg11.dtd">
<!-- Generated by graphviz version 2.43.0 (0)
 -->
<!-- Title: EthercatLifeCycleNode::EthercatLifeCycle Pages: 1 -->
<svg width="268pt" height="106pt"
 viewBox="0.00 0.00 268.00 106.00" xmlns="http://www.w3.org/2000/svg" xmlns:xlink="http://www.w3.org/1999/xlink">
<g id="graph0" class="graph" transform="scale(1 1) rotate(0) translate(4 102)">
<title>EthercatLifeCycleNode::EthercatLifeCycle</title>
<!-- Node1 -->
<g id="node1" class="node">
<title>Node1</title>
<g id="a_node1"><a xlink:title=" ">
<polygon fill="#bfbfbf" stroke="black" points="73,-0.5 73,-30.5 201,-30.5 201,-0.5 73,-0.5"/>
<text text-anchor="start" x="81" y="-18.5" font-family="Helvetica,sans-Serif" font-size="10.00">EthercatLifeCycleNode</text>
<text text-anchor="middle" x="137" y="-7.5" font-family="Helvetica,sans-Serif" font-size="10.00">::EthercatLifeCycle</text>
</a>
</g>
</g>
<!-- Node2 -->
<g id="node2" class="node">
<title>Node2</title>
<g id="a_node2"><a xlink:title=" ">
<polygon fill="none" stroke="#bfbfbf" points="0,-78.5 0,-97.5 86,-97.5 86,-78.5 0,-78.5"/>
<text text-anchor="middle" x="43" y="-85.5" font-family="Helvetica,sans-Serif" font-size="10.00">LifecycleNode</text>
</a>
</g>
</g>
<!-- Node2&#45;&gt;Node1 -->
<g id="edge1" class="edge">
<title>Node2&#45;&gt;Node1</title>
<path fill="none" stroke="midnightblue" d="M62.83,-72.13C79.17,-59.87 102.19,-42.61 118.23,-30.58"/>
<polygon fill="midnightblue" stroke="midnightblue" points="60.43,-69.56 54.53,-78.36 64.63,-75.16 60.43,-69.56"/>
</g>
<!-- Node3 -->
<g id="node3" class="node">
<title>Node3</title>
<g id="a_node3"><a xlink:href="classController.html" target="_top" xlink:title="Opens, reads from and publishes joystick events.">
<polygon fill="none" stroke="black" points="104.5,-78.5 104.5,-97.5 169.5,-97.5 169.5,-78.5 104.5,-78.5"/>
<text text-anchor="middle" x="137" y="-85.5" font-family="Helvetica,sans-Serif" font-size="10.00">Controller</text>
</a>
</g>
</g>
<!-- Node3&#45;&gt;Node1 -->
<g id="edge2" class="edge">
<title>Node3&#45;&gt;Node1</title>
<path fill="none" stroke="#9a32cd" stroke-dasharray="5,2" d="M137,-68.24C137,-56.41 137,-41.38 137,-30.58"/>
<polygon fill="#9a32cd" stroke="#9a32cd" points="133.5,-68.36 137,-78.36 140.5,-68.36 133.5,-68.36"/>
<text text-anchor="middle" x="164.5" y="-52" font-family="Helvetica,sans-Serif" font-size="10.00"> controller_</text>
</g>
<!-- Node4 -->
<g id="node4" class="node">
<title>Node4</title>
<g id="a_node4"><a xlink:href="classTiming.html" target="_top" xlink:title=" ">
<polygon fill="none" stroke="black" points="190,-78.5 190,-97.5 240,-97.5 240,-78.5 190,-78.5"/>
<text text-anchor="middle" x="215" y="-85.5" font-family="Helvetica,sans-Serif" font-size="10.00">Timing</text>
</a>
</g>
</g>
<!-- Node4&#45;&gt;Node1 -->
<g id="edge3" class="edge">
<title>Node4&#45;&gt;Node1</title>
<path fill="none" stroke="#9a32cd" stroke-dasharray="5,2" d="M207.09,-69.07C203.48,-62.24 198.72,-54.73 193,-49 185.77,-41.76 176.6,-35.56 167.79,-30.58"/>
<polygon fill="#9a32cd" stroke="#9a32cd" points="204.05,-70.81 211.54,-78.3 210.35,-67.78 204.05,-70.81"/>
<text text-anchor="middle" x="230.5" y="-52" font-family="Helvetica,sans-Serif" font-size="10.00"> timer_info_</text>
</g>
</g>
</svg>
