<?xml version="1.0" encoding="UTF-8" standalone="no"?>
<!DOCTYPE svg PUBLIC "-//W3C//DTD SVG 1.1//EN"
 "http://www.w3.org/Graphics/SVG/1.1/DTD/svg11.dtd">
<!-- Generated by graphviz version 2.43.0 (0)
 -->
<!-- Title: src/gui_pkg/src/main.cpp Pages: 1 -->
<svg width="2163pt" height="274pt"
 viewBox="0.00 0.00 2163.41 274.00" xmlns="http://www.w3.org/2000/svg" xmlns:xlink="http://www.w3.org/1999/xlink">
<g id="graph0" class="graph" transform="scale(1 1) rotate(0) translate(4 270)">
<title>src/gui_pkg/src/main.cpp</title>
<!-- Node1 -->
<g id="node1" class="node">
<title>Node1</title>
<g id="a_node1"><a xlink:title=" ">
<polygon fill="#bfbfbf" stroke="black" points="536.5,-246.5 536.5,-265.5 673.5,-265.5 673.5,-246.5 536.5,-246.5"/>
<text text-anchor="middle" x="605" y="-253.5" font-family="Helvetica,sans-Serif" font-size="10.00">src/gui_pkg/src/main.cpp</text>
</a>
</g>
</g>
<!-- Node2 -->
<g id="node2" class="node">
<title>Node2</title>
<g id="a_node2"><a xlink:title=" ">
<polygon fill="none" stroke="#bfbfbf" points="471.5,-123.5 471.5,-142.5 550.5,-142.5 550.5,-123.5 471.5,-123.5"/>
<text text-anchor="middle" x="511" y="-130.5" font-family="Helvetica,sans-Serif" font-size="10.00">QApplication</text>
</a>
</g>
</g>
<!-- Node1&#45;&gt;Node2 -->
<g id="edge1" class="edge">
<title>Node1&#45;&gt;Node2</title>
<path fill="none" stroke="midnightblue" d="M604.76,-246.11C603.93,-230.91 600.34,-199.56 585,-179 574.53,-164.96 558.26,-154.38 543.65,-147.02"/>
<polygon fill="midnightblue" stroke="midnightblue" points="544.9,-143.74 534.36,-142.64 541.91,-150.07 544.9,-143.74"/>
</g>
<!-- Node3 -->
<g id="node3" class="node">
<title>Node3</title>
<g id="a_node3"><a xlink:href="main__window_8hpp.html" target="_top" xlink:title=" ">
<polygon fill="none" stroke="black" points="1255.5,-179.5 1255.5,-209.5 1362.5,-209.5 1362.5,-179.5 1255.5,-179.5"/>
<text text-anchor="start" x="1263.5" y="-197.5" font-family="Helvetica,sans-Serif" font-size="10.00">../include/gui_pkg</text>
<text text-anchor="middle" x="1309" y="-186.5" font-family="Helvetica,sans-Serif" font-size="10.00">/main_window.hpp</text>
</a>
</g>
</g>
<!-- Node1&#45;&gt;Node3 -->
<g id="edge2" class="edge">
<title>Node1&#45;&gt;Node3</title>
<path fill="none" stroke="midnightblue" d="M673.78,-249.19C810.18,-237.66 1113.13,-212.05 1245.28,-200.89"/>
<polygon fill="midnightblue" stroke="midnightblue" points="1245.59,-204.37 1255.26,-200.04 1245,-197.4 1245.59,-204.37"/>
</g>
<!-- Node38 -->
<g id="node38" class="node">
<title>Node38</title>
<g id="a_node38"><a xlink:href="endoscope__viewer_8hpp.html" target="_top" xlink:title=" ">
<polygon fill="none" stroke="black" points="445.5,-179.5 445.5,-209.5 576.5,-209.5 576.5,-179.5 445.5,-179.5"/>
<text text-anchor="start" x="453.5" y="-197.5" font-family="Helvetica,sans-Serif" font-size="10.00">../include/gui_pkg</text>
<text text-anchor="middle" x="511" y="-186.5" font-family="Helvetica,sans-Serif" font-size="10.00">/endoscope_viewer.hpp</text>
</a>
</g>
</g>
<!-- Node1&#45;&gt;Node38 -->
<g id="edge53" class="edge">
<title>Node1&#45;&gt;Node38</title>
<path fill="none" stroke="midnightblue" d="M591.53,-246.48C578.56,-238.27 558.49,-225.56 541.62,-214.88"/>
<polygon fill="midnightblue" stroke="midnightblue" points="543.48,-211.91 533.15,-209.52 539.73,-217.83 543.48,-211.91"/>
</g>
<!-- Node3&#45;&gt;Node2 -->
<g id="edge46" class="edge">
<title>Node3&#45;&gt;Node2</title>
<path fill="none" stroke="midnightblue" d="M1255.13,-192.06C1133.17,-188.32 826.49,-176.27 560.98,-143.12"/>
<polygon fill="midnightblue" stroke="midnightblue" points="561.11,-139.61 550.76,-141.83 560.24,-146.55 561.11,-139.61"/>
</g>
<!-- Node4 -->
<g id="node4" class="node">
<title>Node4</title>
<g id="a_node4"><a xlink:title=" ">
<polygon fill="none" stroke="#bfbfbf" points="1987,-0.5 1987,-19.5 2037,-19.5 2037,-0.5 1987,-0.5"/>
<text text-anchor="middle" x="2012" y="-7.5" font-family="Helvetica,sans-Serif" font-size="10.00">chrono</text>
</a>
</g>
</g>
<!-- Node3&#45;&gt;Node4 -->
<g id="edge3" class="edge">
<title>Node3&#45;&gt;Node4</title>
<path fill="none" stroke="midnightblue" d="M1362.75,-193.93C1477.5,-193.87 1754.47,-188.54 1981,-143 2058.16,-127.49 2102.98,-150.85 2149,-87 2177.88,-46.93 2096.86,-25.47 2047.32,-16.38"/>
<polygon fill="midnightblue" stroke="midnightblue" points="2047.73,-12.89 2037.28,-14.62 2046.52,-19.79 2047.73,-12.89"/>
</g>
<!-- Node5 -->
<g id="node5" class="node">
<title>Node5</title>
<g id="a_node5"><a xlink:title=" ">
<polygon fill="none" stroke="#bfbfbf" points="874,-0.5 874,-19.5 932,-19.5 932,-0.5 874,-0.5"/>
<text text-anchor="middle" x="903" y="-7.5" font-family="Helvetica,sans-Serif" font-size="10.00">memory</text>
</a>
</g>
</g>
<!-- Node3&#45;&gt;Node5 -->
<g id="edge4" class="edge">
<title>Node3&#45;&gt;Node5</title>
<path fill="none" stroke="midnightblue" d="M1255.29,-190.68C1187.13,-185.95 1066.57,-173.69 968,-143 914.1,-126.22 883.85,-134.91 854,-87 846.72,-75.31 848.46,-68.61 854,-56 859.39,-43.73 869.96,-33.34 879.9,-25.65"/>
<polygon fill="midnightblue" stroke="midnightblue" points="882.25,-28.27 888.34,-19.6 878.17,-22.58 882.25,-28.27"/>
</g>
<!-- Node6 -->
<g id="node6" class="node">
<title>Node6</title>
<g id="a_node6"><a xlink:title=" ">
<polygon fill="none" stroke="#bfbfbf" points="950,-0.5 950,-19.5 1010,-19.5 1010,-0.5 950,-0.5"/>
<text text-anchor="middle" x="980" y="-7.5" font-family="Helvetica,sans-Serif" font-size="10.00">iostream</text>
</a>
</g>
</g>
<!-- Node3&#45;&gt;Node6 -->
<g id="edge5" class="edge">
<title>Node3&#45;&gt;Node6</title>
<path fill="none" stroke="midnightblue" d="M1255.23,-181.66C1223.25,-173.38 1182.51,-160.63 1149,-143 1086.93,-110.34 1024.69,-54.26 996.14,-26.92"/>
<polygon fill="midnightblue" stroke="midnightblue" points="998.33,-24.16 988.71,-19.71 993.45,-29.19 998.33,-24.16"/>
</g>
<!-- Node7 -->
<g id="node7" class="node">
<title>Node7</title>
<g id="a_node7"><a xlink:title=" ">
<polygon fill="none" stroke="#bfbfbf" points="2040.5,-62 2040.5,-81 2139.5,-81 2139.5,-62 2040.5,-62"/>
<text text-anchor="middle" x="2090" y="-69" font-family="Helvetica,sans-Serif" font-size="10.00">rclcpp/rclcpp.hpp</text>
</a>
</g>
</g>
<!-- Node3&#45;&gt;Node7 -->
<g id="edge6" class="edge">
<title>Node3&#45;&gt;Node7</title>
<path fill="none" stroke="midnightblue" d="M1362.63,-191.68C1494.47,-186.79 1831.53,-171.81 1940,-143 1987.72,-130.32 2038.87,-102.96 2067.4,-86.3"/>
<polygon fill="midnightblue" stroke="midnightblue" points="2069.36,-89.21 2076.17,-81.1 2065.79,-83.19 2069.36,-89.21"/>
</g>
<!-- Node8 -->
<g id="node8" class="node">
<title>Node8</title>
<g id="a_node8"><a xlink:href="gui__node_8hpp.html" target="_top" xlink:title=" ">
<polygon fill="none" stroke="black" points="1158,-123.5 1158,-142.5 1240,-142.5 1240,-123.5 1158,-123.5"/>
<text text-anchor="middle" x="1199" y="-130.5" font-family="Helvetica,sans-Serif" font-size="10.00">gui_node.hpp</text>
</a>
</g>
</g>
<!-- Node3&#45;&gt;Node8 -->
<g id="edge7" class="edge">
<title>Node3&#45;&gt;Node8</title>
<path fill="none" stroke="midnightblue" d="M1282.93,-179.4C1265.13,-169.77 1241.69,-157.09 1224.1,-147.58"/>
<polygon fill="midnightblue" stroke="midnightblue" points="1225.47,-144.34 1215.01,-142.66 1222.14,-150.49 1225.47,-144.34"/>
</g>
<!-- Node21 -->
<g id="node21" class="node">
<title>Node21</title>
<g id="a_node21"><a xlink:href="gui__globals_8hpp.html" target="_top" xlink:title=" ">
<polygon fill="none" stroke="black" points="862.5,-62 862.5,-81 955.5,-81 955.5,-62 862.5,-62"/>
<text text-anchor="middle" x="909" y="-69" font-family="Helvetica,sans-Serif" font-size="10.00">gui_globals.hpp</text>
</a>
</g>
</g>
<!-- Node3&#45;&gt;Node21 -->
<g id="edge43" class="edge">
<title>Node3&#45;&gt;Node21</title>
<path fill="none" stroke="midnightblue" d="M1255.35,-191.74C1193.56,-188.09 1090,-176.95 1008,-143 975.88,-129.7 944.09,-104.32 925.52,-87.91"/>
<polygon fill="midnightblue" stroke="midnightblue" points="927.73,-85.19 917.96,-81.08 923.04,-90.38 927.73,-85.19"/>
</g>
<!-- Node22 -->
<g id="node22" class="node">
<title>Node22</title>
<g id="a_node22"><a xlink:href="video__capture_8hpp.html" target="_top" xlink:title=" ">
<polygon fill="none" stroke="black" points="673.5,-123.5 673.5,-142.5 780.5,-142.5 780.5,-123.5 673.5,-123.5"/>
<text text-anchor="middle" x="727" y="-130.5" font-family="Helvetica,sans-Serif" font-size="10.00">video_capture.hpp</text>
</a>
</g>
</g>
<!-- Node3&#45;&gt;Node22 -->
<g id="edge34" class="edge">
<title>Node3&#45;&gt;Node22</title>
<path fill="none" stroke="midnightblue" d="M1255.29,-188.01C1147.66,-177.01 906.05,-152.3 790.67,-140.51"/>
<polygon fill="midnightblue" stroke="midnightblue" points="790.88,-137.01 780.58,-139.48 790.17,-143.98 790.88,-137.01"/>
</g>
<!-- Node30 -->
<g id="node30" class="node">
<title>Node30</title>
<g id="a_node30"><a xlink:title=" ">
<polygon fill="none" stroke="#bfbfbf" points="1258.5,-123.5 1258.5,-142.5 1359.5,-142.5 1359.5,-123.5 1258.5,-123.5"/>
<text text-anchor="middle" x="1309" y="-130.5" font-family="Helvetica,sans-Serif" font-size="10.00">ui_mainwindow.h</text>
</a>
</g>
</g>
<!-- Node3&#45;&gt;Node30 -->
<g id="edge44" class="edge">
<title>Node3&#45;&gt;Node30</title>
<path fill="none" stroke="midnightblue" d="M1309,-179.4C1309,-171.47 1309,-161.46 1309,-152.86"/>
<polygon fill="midnightblue" stroke="midnightblue" points="1312.5,-152.66 1309,-142.66 1305.5,-152.66 1312.5,-152.66"/>
</g>
<!-- Node31 -->
<g id="node31" class="node">
<title>Node31</title>
<g id="a_node31"><a xlink:title=" ">
<polygon fill="none" stroke="#bfbfbf" points="568.5,-123.5 568.5,-142.5 655.5,-142.5 655.5,-123.5 568.5,-123.5"/>
<text text-anchor="middle" x="612" y="-130.5" font-family="Helvetica,sans-Serif" font-size="10.00">QMainWindow</text>
</a>
</g>
</g>
<!-- Node3&#45;&gt;Node31 -->
<g id="edge45" class="edge">
<title>Node3&#45;&gt;Node31</title>
<path fill="none" stroke="midnightblue" d="M1255.31,-190.99C1146.1,-185.52 890.08,-170.83 665.64,-143.1"/>
<polygon fill="midnightblue" stroke="midnightblue" points="666,-139.62 655.65,-141.86 665.14,-146.57 666,-139.62"/>
</g>
<!-- Node32 -->
<g id="node32" class="node">
<title>Node32</title>
<g id="a_node32"><a xlink:title=" ">
<polygon fill="none" stroke="#bfbfbf" points="1378,-123.5 1378,-142.5 1498,-142.5 1498,-123.5 1378,-123.5"/>
<text text-anchor="middle" x="1438" y="-130.5" font-family="Helvetica,sans-Serif" font-size="10.00">QStandardItemModel</text>
</a>
</g>
</g>
<!-- Node3&#45;&gt;Node32 -->
<g id="edge47" class="edge">
<title>Node3&#45;&gt;Node32</title>
<path fill="none" stroke="midnightblue" d="M1339.57,-179.4C1360.93,-169.55 1389.22,-156.5 1409.98,-146.92"/>
<polygon fill="midnightblue" stroke="midnightblue" points="1411.61,-150.02 1419.23,-142.66 1408.68,-143.67 1411.61,-150.02"/>
</g>
<!-- Node33 -->
<g id="node33" class="node">
<title>Node33</title>
<g id="a_node33"><a xlink:title=" ">
<polygon fill="none" stroke="#bfbfbf" points="1516,-123.5 1516,-142.5 1590,-142.5 1590,-123.5 1516,-123.5"/>
<text text-anchor="middle" x="1553" y="-130.5" font-family="Helvetica,sans-Serif" font-size="10.00">QTableView</text>
</a>
</g>
</g>
<!-- Node3&#45;&gt;Node33 -->
<g id="edge48" class="edge">
<title>Node3&#45;&gt;Node33</title>
<path fill="none" stroke="midnightblue" d="M1362.55,-180.44C1406.22,-169.79 1467.2,-154.92 1508.29,-144.9"/>
<polygon fill="midnightblue" stroke="midnightblue" points="1509.14,-148.3 1518.03,-142.53 1507.49,-141.5 1509.14,-148.3"/>
</g>
<!-- Node34 -->
<g id="node34" class="node">
<title>Node34</title>
<g id="a_node34"><a xlink:title=" ">
<polygon fill="none" stroke="#bfbfbf" points="1608.5,-123.5 1608.5,-142.5 1691.5,-142.5 1691.5,-123.5 1608.5,-123.5"/>
<text text-anchor="middle" x="1650" y="-130.5" font-family="Helvetica,sans-Serif" font-size="10.00">QHeaderView</text>
</a>
</g>
</g>
<!-- Node3&#45;&gt;Node34 -->
<g id="edge49" class="edge">
<title>Node3&#45;&gt;Node34</title>
<path fill="none" stroke="midnightblue" d="M1362.72,-184.18C1418.84,-174.44 1509.71,-158.64 1598.3,-143.12"/>
<polygon fill="midnightblue" stroke="midnightblue" points="1599.01,-146.55 1608.25,-141.38 1597.8,-139.65 1599.01,-146.55"/>
</g>
<!-- Node35 -->
<g id="node35" class="node">
<title>Node35</title>
<g id="a_node35"><a xlink:title=" ">
<polygon fill="none" stroke="#bfbfbf" points="1709.5,-123.5 1709.5,-142.5 1762.5,-142.5 1762.5,-123.5 1709.5,-123.5"/>
<text text-anchor="middle" x="1736" y="-130.5" font-family="Helvetica,sans-Serif" font-size="10.00">QString</text>
</a>
</g>
</g>
<!-- Node3&#45;&gt;Node35 -->
<g id="edge50" class="edge">
<title>Node3&#45;&gt;Node35</title>
<path fill="none" stroke="midnightblue" d="M1362.59,-188.71C1436.39,-181.66 1573.58,-166.86 1699.15,-143.17"/>
<polygon fill="midnightblue" stroke="midnightblue" points="1700.16,-146.54 1709.32,-141.22 1698.84,-139.66 1700.16,-146.54"/>
</g>
<!-- Node36 -->
<g id="node36" class="node">
<title>Node36</title>
<g id="a_node36"><a xlink:title=" ">
<polygon fill="none" stroke="#bfbfbf" points="1781,-123.5 1781,-142.5 1861,-142.5 1861,-123.5 1781,-123.5"/>
<text text-anchor="middle" x="1821" y="-130.5" font-family="Helvetica,sans-Serif" font-size="10.00">QTextStream</text>
</a>
</g>
</g>
<!-- Node3&#45;&gt;Node36 -->
<g id="edge51" class="edge">
<title>Node3&#45;&gt;Node36</title>
<path fill="none" stroke="midnightblue" d="M1362.63,-188.93C1447.2,-181.45 1616.89,-165.29 1770.81,-143.08"/>
<polygon fill="midnightblue" stroke="midnightblue" points="1771.54,-146.51 1780.93,-141.61 1770.53,-139.58 1771.54,-146.51"/>
</g>
<!-- Node37 -->
<g id="node37" class="node">
<title>Node37</title>
<g id="a_node37"><a xlink:title=" ">
<polygon fill="none" stroke="#bfbfbf" points="1879,-123.5 1879,-142.5 1931,-142.5 1931,-123.5 1879,-123.5"/>
<text text-anchor="middle" x="1905" y="-130.5" font-family="Helvetica,sans-Serif" font-size="10.00">QTimer</text>
</a>
</g>
</g>
<!-- Node3&#45;&gt;Node37 -->
<g id="edge52" class="edge">
<title>Node3&#45;&gt;Node37</title>
<path fill="none" stroke="midnightblue" d="M1362.75,-191.56C1461.37,-187.36 1677.89,-175.24 1868.79,-142.95"/>
<polygon fill="midnightblue" stroke="midnightblue" points="1869.46,-146.38 1878.73,-141.24 1868.28,-139.48 1869.46,-146.38"/>
</g>
<!-- Node8&#45;&gt;Node4 -->
<g id="edge14" class="edge">
<title>Node8&#45;&gt;Node4</title>
<path fill="none" stroke="midnightblue" d="M1240.13,-124.28C1243.46,-123.8 1246.78,-123.36 1250,-123 1332.14,-113.8 1929.1,-139.43 1993,-87 2009.64,-73.35 2012.97,-47.53 2013.08,-29.81"/>
<polygon fill="midnightblue" stroke="midnightblue" points="2016.58,-29.67 2012.82,-19.77 2009.58,-29.86 2016.58,-29.67"/>
</g>
<!-- Node8&#45;&gt;Node5 -->
<g id="edge15" class="edge">
<title>Node8&#45;&gt;Node5</title>
<path fill="none" stroke="midnightblue" d="M1178.19,-123.49C1126.83,-102.5 993.87,-48.15 933.56,-23.49"/>
<polygon fill="midnightblue" stroke="midnightblue" points="934.77,-20.21 924.19,-19.66 932.12,-26.68 934.77,-20.21"/>
</g>
<!-- Node8&#45;&gt;Node7 -->
<g id="edge8" class="edge">
<title>Node8&#45;&gt;Node7</title>
<path fill="none" stroke="midnightblue" d="M1240.13,-124.27C1243.46,-123.79 1246.78,-123.36 1250,-123 1593.15,-84.92 1683.86,-133.32 2026,-87 2032.9,-86.07 2040.16,-84.75 2047.21,-83.29"/>
<polygon fill="midnightblue" stroke="midnightblue" points="2048.3,-86.63 2057.32,-81.07 2046.8,-79.8 2048.3,-86.63"/>
</g>
<!-- Node9 -->
<g id="node9" class="node">
<title>Node9</title>
<g id="a_node9"><a xlink:title=" ">
<polygon fill="none" stroke="#bfbfbf" points="1328,-62 1328,-81 1470,-81 1470,-62 1328,-62"/>
<text text-anchor="middle" x="1399" y="-69" font-family="Helvetica,sans-Serif" font-size="10.00">sensor_msgs/msg/joy.hpp</text>
</a>
</g>
</g>
<!-- Node8&#45;&gt;Node9 -->
<g id="edge9" class="edge">
<title>Node8&#45;&gt;Node9</title>
<path fill="none" stroke="midnightblue" d="M1227.66,-123.48C1262.56,-113.09 1321.65,-95.51 1360.5,-83.95"/>
<polygon fill="midnightblue" stroke="midnightblue" points="1361.81,-87.22 1370.4,-81.01 1359.82,-80.51 1361.81,-87.22"/>
</g>
<!-- Node10 -->
<g id="node10" class="node">
<title>Node10</title>
<g id="a_node10"><a xlink:title=" ">
<polygon fill="none" stroke="#bfbfbf" points="1488,-56.5 1488,-86.5 1606,-86.5 1606,-56.5 1488,-56.5"/>
<text text-anchor="start" x="1496" y="-74.5" font-family="Helvetica,sans-Serif" font-size="10.00">ecat_msgs/msg/data</text>
<text text-anchor="middle" x="1547" y="-63.5" font-family="Helvetica,sans-Serif" font-size="10.00">_received.hpp</text>
</a>
</g>
</g>
<!-- Node8&#45;&gt;Node10 -->
<g id="edge10" class="edge">
<title>Node8&#45;&gt;Node10</title>
<path fill="none" stroke="midnightblue" d="M1240.18,-124.66C1243.5,-124.09 1246.81,-123.53 1250,-123 1348.45,-106.58 1375.99,-105.78 1477.63,-87.2"/>
<polygon fill="midnightblue" stroke="midnightblue" points="1478.5,-90.6 1487.7,-85.34 1477.23,-83.71 1478.5,-90.6"/>
</g>
<!-- Node11 -->
<g id="node11" class="node">
<title>Node11</title>
<g id="a_node11"><a xlink:title=" ">
<polygon fill="none" stroke="#bfbfbf" points="1700,-56.5 1700,-86.5 1818,-86.5 1818,-56.5 1700,-56.5"/>
<text text-anchor="start" x="1708" y="-74.5" font-family="Helvetica,sans-Serif" font-size="10.00">ecat_msgs/msg/data</text>
<text text-anchor="middle" x="1759" y="-63.5" font-family="Helvetica,sans-Serif" font-size="10.00">_sent.hpp</text>
</a>
</g>
</g>
<!-- Node8&#45;&gt;Node11 -->
<g id="edge11" class="edge">
<title>Node8&#45;&gt;Node11</title>
<path fill="none" stroke="midnightblue" d="M1240.15,-124.4C1243.47,-123.89 1246.79,-123.41 1250,-123 1442.83,-98.08 1493.44,-113.98 1686,-87 1687.26,-86.82 1688.53,-86.64 1689.81,-86.45"/>
<polygon fill="midnightblue" stroke="midnightblue" points="1690.41,-89.9 1699.73,-84.86 1689.31,-82.98 1690.41,-89.9"/>
</g>
<!-- Node12 -->
<g id="node12" class="node">
<title>Node12</title>
<g id="a_node12"><a xlink:title=" ">
<polygon fill="none" stroke="#bfbfbf" points="1836,-56.5 1836,-86.5 1984,-86.5 1984,-56.5 1836,-56.5"/>
<text text-anchor="start" x="1844" y="-74.5" font-family="Helvetica,sans-Serif" font-size="10.00">ecat_msgs/msg/gui_button</text>
<text text-anchor="middle" x="1910" y="-63.5" font-family="Helvetica,sans-Serif" font-size="10.00">_data.hpp</text>
</a>
</g>
</g>
<!-- Node8&#45;&gt;Node12 -->
<g id="edge12" class="edge">
<title>Node8&#45;&gt;Node12</title>
<path fill="none" stroke="midnightblue" d="M1240.14,-124.33C1243.47,-123.84 1246.79,-123.38 1250,-123 1501.9,-93.01 1570.11,-116.54 1825.89,-87.04"/>
<polygon fill="midnightblue" stroke="midnightblue" points="1826.32,-90.51 1835.85,-85.87 1825.51,-83.56 1826.32,-90.51"/>
</g>
<!-- Node13 -->
<g id="node13" class="node">
<title>Node13</title>
<g id="a_node13"><a xlink:title=" ">
<polygon fill="none" stroke="#bfbfbf" points="1028.5,-0.5 1028.5,-19.5 1075.5,-19.5 1075.5,-0.5 1028.5,-0.5"/>
<text text-anchor="middle" x="1052" y="-7.5" font-family="Helvetica,sans-Serif" font-size="10.00">vector</text>
</a>
</g>
</g>
<!-- Node8&#45;&gt;Node13 -->
<g id="edge13" class="edge">
<title>Node8&#45;&gt;Node13</title>
<path fill="none" stroke="midnightblue" d="M1184.16,-123.47C1169.79,-114.95 1147.64,-101.12 1130,-87 1106.37,-68.08 1081.79,-43.1 1066.69,-27.04"/>
<polygon fill="midnightblue" stroke="midnightblue" points="1069.09,-24.48 1059.71,-19.54 1063.96,-29.24 1069.09,-24.48"/>
</g>
<!-- Node14 -->
<g id="node14" class="node">
<title>Node14</title>
<g id="a_node14"><a xlink:title=" ">
<polygon fill="none" stroke="#bfbfbf" points="1093.5,-0.5 1093.5,-19.5 1158.5,-19.5 1158.5,-0.5 1093.5,-0.5"/>
<text text-anchor="middle" x="1126" y="-7.5" font-family="Helvetica,sans-Serif" font-size="10.00">functional</text>
</a>
</g>
</g>
<!-- Node8&#45;&gt;Node14 -->
<g id="edge16" class="edge">
<title>Node8&#45;&gt;Node14</title>
<path fill="none" stroke="midnightblue" d="M1185.34,-123.26C1173.78,-115.18 1157.61,-102.16 1148,-87 1136.88,-69.45 1131.22,-46.1 1128.45,-29.94"/>
<polygon fill="midnightblue" stroke="midnightblue" points="1131.85,-28.99 1126.91,-19.62 1124.92,-30.03 1131.85,-28.99"/>
</g>
<!-- Node15 -->
<g id="node15" class="node">
<title>Node15</title>
<g id="a_node15"><a xlink:title=" ">
<polygon fill="none" stroke="#bfbfbf" points="1177,-0.5 1177,-19.5 1221,-19.5 1221,-0.5 1177,-0.5"/>
<text text-anchor="middle" x="1199" y="-7.5" font-family="Helvetica,sans-Serif" font-size="10.00">string</text>
</a>
</g>
</g>
<!-- Node8&#45;&gt;Node15 -->
<g id="edge17" class="edge">
<title>Node8&#45;&gt;Node15</title>
<path fill="none" stroke="midnightblue" d="M1186.5,-123.3C1176.13,-115.25 1162.11,-102.24 1156,-87 1150.87,-74.21 1150.87,-68.79 1156,-56 1160.68,-44.33 1169.99,-33.97 1178.76,-26.14"/>
<polygon fill="midnightblue" stroke="midnightblue" points="1181.05,-28.78 1186.5,-19.7 1176.58,-23.4 1181.05,-28.78"/>
</g>
<!-- Node16 -->
<g id="node16" class="node">
<title>Node16</title>
<g id="a_node16"><a xlink:title=" ">
<polygon fill="none" stroke="#bfbfbf" points="1239,-0.5 1239,-19.5 1289,-19.5 1289,-0.5 1239,-0.5"/>
<text text-anchor="middle" x="1264" y="-7.5" font-family="Helvetica,sans-Serif" font-size="10.00">cstdint</text>
</a>
</g>
</g>
<!-- Node8&#45;&gt;Node16 -->
<g id="edge18" class="edge">
<title>Node8&#45;&gt;Node16</title>
<path fill="none" stroke="midnightblue" d="M1210.39,-123.21C1220.39,-114.91 1234.61,-101.59 1243,-87 1253.32,-69.05 1258.78,-45.77 1261.52,-29.74"/>
<polygon fill="midnightblue" stroke="midnightblue" points="1265.03,-29.93 1263.06,-19.52 1258.1,-28.88 1265.03,-29.93"/>
</g>
<!-- Node17 -->
<g id="node17" class="node">
<title>Node17</title>
<g id="a_node17"><a xlink:title=" ">
<polygon fill="none" stroke="#bfbfbf" points="1307,-0.5 1307,-19.5 1351,-19.5 1351,-0.5 1307,-0.5"/>
<text text-anchor="middle" x="1329" y="-7.5" font-family="Helvetica,sans-Serif" font-size="10.00">ctime</text>
</a>
</g>
</g>
<!-- Node8&#45;&gt;Node17 -->
<g id="edge19" class="edge">
<title>Node8&#45;&gt;Node17</title>
<path fill="none" stroke="midnightblue" d="M1213.21,-123.43C1226.69,-114.98 1247.17,-101.29 1263,-87 1283.58,-68.43 1303.99,-43.69 1316.55,-27.56"/>
<polygon fill="midnightblue" stroke="midnightblue" points="1319.36,-29.64 1322.67,-19.58 1313.81,-25.39 1319.36,-29.64"/>
</g>
<!-- Node18 -->
<g id="node18" class="node">
<title>Node18</title>
<g id="a_node18"><a xlink:title=" ">
<polygon fill="none" stroke="#bfbfbf" points="1424.5,-0.5 1424.5,-19.5 1463.5,-19.5 1463.5,-0.5 1424.5,-0.5"/>
<text text-anchor="middle" x="1444" y="-7.5" font-family="Helvetica,sans-Serif" font-size="10.00">ratio</text>
</a>
</g>
</g>
<!-- Node8&#45;&gt;Node18 -->
<g id="edge20" class="edge">
<title>Node8&#45;&gt;Node18</title>
<path fill="none" stroke="midnightblue" d="M1240.15,-124.46C1243.48,-123.93 1246.79,-123.44 1250,-123 1290.37,-117.45 1587.63,-117.2 1615,-87 1658.01,-39.54 1533.34,-20.1 1473.76,-13.68"/>
<polygon fill="midnightblue" stroke="midnightblue" points="1474.09,-10.19 1463.79,-12.66 1473.38,-17.16 1474.09,-10.19"/>
</g>
<!-- Node19 -->
<g id="node19" class="node">
<title>Node19</title>
<g id="a_node19"><a xlink:title=" ">
<polygon fill="none" stroke="#bfbfbf" points="1535.5,-0.5 1535.5,-19.5 1590.5,-19.5 1590.5,-0.5 1535.5,-0.5"/>
<text text-anchor="middle" x="1563" y="-7.5" font-family="Helvetica,sans-Serif" font-size="10.00">fstream</text>
</a>
</g>
</g>
<!-- Node8&#45;&gt;Node19 -->
<g id="edge21" class="edge">
<title>Node8&#45;&gt;Node19</title>
<path fill="none" stroke="midnightblue" d="M1240.15,-124.44C1243.48,-123.92 1246.79,-123.43 1250,-123 1292.36,-117.28 1604.22,-118.61 1633,-87 1642.28,-76.81 1639.6,-68.09 1633,-56 1625.18,-41.68 1610.64,-31.24 1596.82,-24.04"/>
<polygon fill="midnightblue" stroke="midnightblue" points="1598,-20.72 1587.47,-19.56 1594.98,-27.03 1598,-20.72"/>
</g>
<!-- Node20 -->
<g id="node20" class="node">
<title>Node20</title>
<g id="a_node20"><a xlink:href="gui__pkg_2include_2gui__pkg_2timing_8hpp.html" target="_top" xlink:title=" ">
<polygon fill="none" stroke="black" points="1164.5,-62 1164.5,-81 1233.5,-81 1233.5,-62 1164.5,-62"/>
<text text-anchor="middle" x="1199" y="-69" font-family="Helvetica,sans-Serif" font-size="10.00">timing.hpp</text>
</a>
</g>
</g>
<!-- Node8&#45;&gt;Node20 -->
<g id="edge22" class="edge">
<title>Node8&#45;&gt;Node20</title>
<path fill="none" stroke="midnightblue" d="M1199,-123.48C1199,-115.08 1199,-101.98 1199,-91.16"/>
<polygon fill="midnightblue" stroke="midnightblue" points="1202.5,-91.01 1199,-81.01 1195.5,-91.01 1202.5,-91.01"/>
</g>
<!-- Node8&#45;&gt;Node21 -->
<g id="edge33" class="edge">
<title>Node8&#45;&gt;Node21</title>
<path fill="none" stroke="midnightblue" d="M1157.95,-124.44C1112.04,-115.86 1035.53,-101.22 970,-87 964.68,-85.85 959.11,-84.59 953.6,-83.31"/>
<polygon fill="midnightblue" stroke="midnightblue" points="954.32,-79.89 943.78,-81.02 952.72,-86.71 954.32,-79.89"/>
</g>
<!-- Node20&#45;&gt;Node4 -->
<g id="edge24" class="edge">
<title>Node20&#45;&gt;Node4</title>
<path fill="none" stroke="midnightblue" d="M1233.6,-65.8C1257.55,-62.68 1290.16,-58.68 1319,-56 1570.6,-32.65 1874.72,-17.37 1976.73,-12.6"/>
<polygon fill="midnightblue" stroke="midnightblue" points="1976.96,-16.09 1986.79,-12.13 1976.64,-9.1 1976.96,-16.09"/>
</g>
<!-- Node20&#45;&gt;Node5 -->
<g id="edge25" class="edge">
<title>Node20&#45;&gt;Node5</title>
<path fill="none" stroke="midnightblue" d="M1164.27,-64.15C1116.49,-55.32 1027.55,-38.52 941.9,-20.13"/>
<polygon fill="midnightblue" stroke="midnightblue" points="942.53,-16.69 932.02,-18 941.06,-23.53 942.53,-16.69"/>
</g>
<!-- Node20&#45;&gt;Node6 -->
<g id="edge32" class="edge">
<title>Node20&#45;&gt;Node6</title>
<path fill="none" stroke="midnightblue" d="M1167.62,-61.98C1128.75,-51.41 1062.48,-33.41 1019.99,-21.87"/>
<polygon fill="midnightblue" stroke="midnightblue" points="1020.83,-18.47 1010.26,-19.22 1018.99,-25.22 1020.83,-18.47"/>
</g>
<!-- Node20&#45;&gt;Node13 -->
<g id="edge23" class="edge">
<title>Node20&#45;&gt;Node13</title>
<path fill="none" stroke="midnightblue" d="M1177.94,-61.98C1152.94,-51.86 1111.06,-34.9 1082.51,-23.35"/>
<polygon fill="midnightblue" stroke="midnightblue" points="1083.61,-20.02 1073.02,-19.51 1080.98,-26.51 1083.61,-20.02"/>
</g>
<!-- Node20&#45;&gt;Node14 -->
<g id="edge26" class="edge">
<title>Node20&#45;&gt;Node14</title>
<path fill="none" stroke="midnightblue" d="M1188.54,-61.98C1177.05,-52.61 1158.37,-37.38 1144.41,-26.01"/>
<polygon fill="midnightblue" stroke="midnightblue" points="1146.4,-23.11 1136.44,-19.51 1141.98,-28.54 1146.4,-23.11"/>
</g>
<!-- Node20&#45;&gt;Node15 -->
<g id="edge27" class="edge">
<title>Node20&#45;&gt;Node15</title>
<path fill="none" stroke="midnightblue" d="M1199,-61.98C1199,-53.58 1199,-40.48 1199,-29.66"/>
<polygon fill="midnightblue" stroke="midnightblue" points="1202.5,-29.51 1199,-19.51 1195.5,-29.51 1202.5,-29.51"/>
</g>
<!-- Node20&#45;&gt;Node16 -->
<g id="edge28" class="edge">
<title>Node20&#45;&gt;Node16</title>
<path fill="none" stroke="midnightblue" d="M1208.31,-61.98C1218.45,-52.7 1234.86,-37.67 1247.25,-26.33"/>
<polygon fill="midnightblue" stroke="midnightblue" points="1249.69,-28.84 1254.7,-19.51 1244.96,-23.68 1249.69,-28.84"/>
</g>
<!-- Node20&#45;&gt;Node17 -->
<g id="edge29" class="edge">
<title>Node20&#45;&gt;Node17</title>
<path fill="none" stroke="midnightblue" d="M1217.63,-61.98C1239.44,-51.99 1275.8,-35.35 1301.02,-23.81"/>
<polygon fill="midnightblue" stroke="midnightblue" points="1302.77,-26.85 1310.41,-19.51 1299.86,-20.49 1302.77,-26.85"/>
</g>
<!-- Node20&#45;&gt;Node18 -->
<g id="edge30" class="edge">
<title>Node20&#45;&gt;Node18</title>
<path fill="none" stroke="midnightblue" d="M1233.58,-62.1C1281.92,-50.36 1368.85,-29.25 1414.37,-18.19"/>
<polygon fill="midnightblue" stroke="midnightblue" points="1415.33,-21.56 1424.22,-15.8 1413.68,-14.76 1415.33,-21.56"/>
</g>
<!-- Node20&#45;&gt;Node19 -->
<g id="edge31" class="edge">
<title>Node20&#45;&gt;Node19</title>
<path fill="none" stroke="midnightblue" d="M1233.57,-64.85C1301.94,-53.67 1453.91,-28.83 1524.98,-17.21"/>
<polygon fill="midnightblue" stroke="midnightblue" points="1525.96,-20.6 1535.27,-15.53 1524.83,-13.69 1525.96,-20.6"/>
</g>
<!-- Node22&#45;&gt;Node21 -->
<g id="edge42" class="edge">
<title>Node22&#45;&gt;Node21</title>
<path fill="none" stroke="midnightblue" d="M753.08,-123.48C784.57,-113.18 837.7,-95.81 873.06,-84.25"/>
<polygon fill="midnightblue" stroke="midnightblue" points="874.55,-87.44 882.97,-81.01 872.38,-80.79 874.55,-87.44"/>
</g>
<!-- Node23 -->
<g id="node23" class="node">
<title>Node23</title>
<g id="a_node23"><a xlink:title=" ">
<polygon fill="none" stroke="#bfbfbf" points="595.5,-62 595.5,-81 656.5,-81 656.5,-62 595.5,-62"/>
<text text-anchor="middle" x="626" y="-69" font-family="Helvetica,sans-Serif" font-size="10.00">QPixmap</text>
</a>
</g>
</g>
<!-- Node22&#45;&gt;Node23 -->
<g id="edge35" class="edge">
<title>Node22&#45;&gt;Node23</title>
<path fill="none" stroke="midnightblue" d="M712.53,-123.48C696.03,-113.75 668.82,-97.73 649.32,-86.24"/>
<polygon fill="midnightblue" stroke="midnightblue" points="650.84,-83.07 640.44,-81.01 647.28,-89.1 650.84,-83.07"/>
</g>
<!-- Node24 -->
<g id="node24" class="node">
<title>Node24</title>
<g id="a_node24"><a xlink:title=" ">
<polygon fill="none" stroke="#bfbfbf" points="674.5,-62 674.5,-81 729.5,-81 729.5,-62 674.5,-62"/>
<text text-anchor="middle" x="702" y="-69" font-family="Helvetica,sans-Serif" font-size="10.00">QImage</text>
</a>
</g>
</g>
<!-- Node22&#45;&gt;Node24 -->
<g id="edge36" class="edge">
<title>Node22&#45;&gt;Node24</title>
<path fill="none" stroke="midnightblue" d="M723.42,-123.48C719.82,-114.9 714.15,-101.43 709.56,-90.48"/>
<polygon fill="midnightblue" stroke="midnightblue" points="712.68,-88.87 705.58,-81.01 706.22,-91.58 712.68,-88.87"/>
</g>
<!-- Node25 -->
<g id="node25" class="node">
<title>Node25</title>
<g id="a_node25"><a xlink:title=" ">
<polygon fill="none" stroke="#bfbfbf" points="748,-62 748,-81 806,-81 806,-62 748,-62"/>
<text text-anchor="middle" x="777" y="-69" font-family="Helvetica,sans-Serif" font-size="10.00">QThread</text>
</a>
</g>
</g>
<!-- Node22&#45;&gt;Node25 -->
<g id="edge37" class="edge">
<title>Node22&#45;&gt;Node25</title>
<path fill="none" stroke="midnightblue" d="M734.16,-123.48C741.74,-114.46 753.87,-100.02 763.29,-88.81"/>
<polygon fill="midnightblue" stroke="midnightblue" points="766.1,-90.92 769.85,-81.01 760.74,-86.41 766.1,-90.92"/>
</g>
<!-- Node26 -->
<g id="node26" class="node">
<title>Node26</title>
<g id="a_node26"><a xlink:title=" ">
<polygon fill="none" stroke="#bfbfbf" points="0,-62 0,-81 116,-81 116,-62 0,-62"/>
<text text-anchor="middle" x="58" y="-69" font-family="Helvetica,sans-Serif" font-size="10.00">opencv2/opencv.hpp</text>
</a>
</g>
</g>
<!-- Node22&#45;&gt;Node26 -->
<g id="edge38" class="edge">
<title>Node22&#45;&gt;Node26</title>
<path fill="none" stroke="midnightblue" d="M673.42,-124.07C670.23,-123.68 667.08,-123.32 664,-123 425.22,-98.01 362.74,-120.48 125,-87 117.79,-85.98 110.2,-84.63 102.82,-83.15"/>
<polygon fill="midnightblue" stroke="midnightblue" points="103.45,-79.7 92.95,-81.08 102.01,-86.55 103.45,-79.7"/>
</g>
<!-- Node27 -->
<g id="node27" class="node">
<title>Node27</title>
<g id="a_node27"><a xlink:title=" ">
<polygon fill="none" stroke="#bfbfbf" points="134.5,-62 134.5,-81 291.5,-81 291.5,-62 134.5,-62"/>
<text text-anchor="middle" x="213" y="-69" font-family="Helvetica,sans-Serif" font-size="10.00">opencv2/highgui/highgui.hpp</text>
</a>
</g>
</g>
<!-- Node22&#45;&gt;Node27 -->
<g id="edge39" class="edge">
<title>Node22&#45;&gt;Node27</title>
<path fill="none" stroke="midnightblue" d="M673.4,-124.18C670.22,-123.77 667.07,-123.37 664,-123 503.05,-103.53 461.73,-108.19 301,-87 291.43,-85.74 281.3,-84.23 271.46,-82.67"/>
<polygon fill="midnightblue" stroke="midnightblue" points="271.76,-79.18 261.33,-81.04 270.65,-86.09 271.76,-79.18"/>
</g>
<!-- Node28 -->
<g id="node28" class="node">
<title>Node28</title>
<g id="a_node28"><a xlink:title=" ">
<polygon fill="none" stroke="#bfbfbf" points="310,-62 310,-81 432,-81 432,-62 310,-62"/>
<text text-anchor="middle" x="371" y="-69" font-family="Helvetica,sans-Serif" font-size="10.00">opencv2/imgproc.hpp</text>
</a>
</g>
</g>
<!-- Node22&#45;&gt;Node28 -->
<g id="edge40" class="edge">
<title>Node22&#45;&gt;Node28</title>
<path fill="none" stroke="midnightblue" d="M673.37,-124.35C615.8,-115.95 521.73,-101.7 441,-87 434.36,-85.79 427.37,-84.44 420.49,-83.06"/>
<polygon fill="midnightblue" stroke="midnightblue" points="421.04,-79.6 410.55,-81.04 419.65,-86.46 421.04,-79.6"/>
</g>
<!-- Node29 -->
<g id="node29" class="node">
<title>Node29</title>
<g id="a_node29"><a xlink:title=" ">
<polygon fill="none" stroke="#bfbfbf" points="450.5,-62 450.5,-81 577.5,-81 577.5,-62 450.5,-62"/>
<text text-anchor="middle" x="514" y="-69" font-family="Helvetica,sans-Serif" font-size="10.00">opencv2/core/core.hpp</text>
</a>
</g>
</g>
<!-- Node22&#45;&gt;Node29 -->
<g id="edge41" class="edge">
<title>Node22&#45;&gt;Node29</title>
<path fill="none" stroke="midnightblue" d="M696.48,-123.48C659.08,-113.03 595.57,-95.29 554.21,-83.73"/>
<polygon fill="midnightblue" stroke="midnightblue" points="555.03,-80.33 544.46,-81.01 553.15,-87.07 555.03,-80.33"/>
</g>
<!-- Node38&#45;&gt;Node2 -->
<g id="edge56" class="edge">
<title>Node38&#45;&gt;Node2</title>
<path fill="none" stroke="midnightblue" d="M511,-179.4C511,-171.47 511,-161.46 511,-152.86"/>
<polygon fill="midnightblue" stroke="midnightblue" points="514.5,-152.66 511,-142.66 507.5,-152.66 514.5,-152.66"/>
</g>
<!-- Node38&#45;&gt;Node22 -->
<g id="edge58" class="edge">
<title>Node38&#45;&gt;Node22</title>
<path fill="none" stroke="midnightblue" d="M561.92,-179.47C599.83,-169.03 650.92,-154.96 686.17,-145.25"/>
<polygon fill="midnightblue" stroke="midnightblue" points="687.41,-148.54 696.12,-142.51 685.55,-141.79 687.41,-148.54"/>
</g>
<!-- Node38&#45;&gt;Node31 -->
<g id="edge54" class="edge">
<title>Node38&#45;&gt;Node31</title>
<path fill="none" stroke="midnightblue" d="M534.94,-179.4C551.13,-169.86 572.41,-157.32 588.5,-147.84"/>
<polygon fill="midnightblue" stroke="midnightblue" points="590.46,-150.75 597.3,-142.66 586.91,-144.72 590.46,-150.75"/>
</g>
<!-- Node39 -->
<g id="node39" class="node">
<title>Node39</title>
<g id="a_node39"><a xlink:title=" ">
<polygon fill="none" stroke="#bfbfbf" points="275.5,-123.5 275.5,-142.5 406.5,-142.5 406.5,-123.5 275.5,-123.5"/>
<text text-anchor="middle" x="341" y="-130.5" font-family="Helvetica,sans-Serif" font-size="10.00">ui_endoscope_viewer.h</text>
</a>
</g>
</g>
<!-- Node38&#45;&gt;Node39 -->
<g id="edge55" class="edge">
<title>Node38&#45;&gt;Node39</title>
<path fill="none" stroke="midnightblue" d="M470.71,-179.4C441.68,-169.24 402.92,-155.67 375.35,-146.02"/>
<polygon fill="midnightblue" stroke="midnightblue" points="376.33,-142.66 365.74,-142.66 374.02,-149.26 376.33,-142.66"/>
</g>
<!-- Node40 -->
<g id="node40" class="node">
<title>Node40</title>
<g id="a_node40"><a xlink:title=" ">
<polygon fill="none" stroke="#bfbfbf" points="424.5,-123.5 424.5,-142.5 453.5,-142.5 453.5,-123.5 424.5,-123.5"/>
<text text-anchor="middle" x="439" y="-130.5" font-family="Helvetica,sans-Serif" font-size="10.00">Qt</text>
</a>
</g>
</g>
<!-- Node38&#45;&gt;Node40 -->
<g id="edge57" class="edge">
<title>Node38&#45;&gt;Node40</title>
<path fill="none" stroke="midnightblue" d="M493.94,-179.4C482.94,-170.31 468.63,-158.49 457.38,-149.19"/>
<polygon fill="midnightblue" stroke="midnightblue" points="459.41,-146.33 449.48,-142.66 454.96,-151.73 459.41,-146.33"/>
</g>
</g>
</svg>
