<?xml version="1.0" encoding="UTF-8" standalone="no"?>
<!DOCTYPE svg PUBLIC "-//W3C//DTD SVG 1.1//EN"
 "http://www.w3.org/Graphics/SVG/1.1/DTD/svg11.dtd">
<!-- Generated by graphviz version 2.43.0 (0)
 -->
<!-- Title: src/gui_pkg/src/gui_node.cpp Pages: 1 -->
<svg width="1247pt" height="229pt"
 viewBox="0.00 0.00 1247.00 229.00" xmlns="http://www.w3.org/2000/svg" xmlns:xlink="http://www.w3.org/1999/xlink">
<g id="graph0" class="graph" transform="scale(1 1) rotate(0) translate(4 225)">
<title>src/gui_pkg/src/gui_node.cpp</title>
<!-- Node1 -->
<g id="node1" class="node">
<title>Node1</title>
<g id="a_node1"><a xlink:title=" ">
<polygon fill="#bfbfbf" stroke="black" points="767,-190.5 767,-220.5 874,-220.5 874,-190.5 767,-190.5"/>
<text text-anchor="start" x="775" y="-208.5" font-family="Helvetica,sans-Serif" font-size="10.00">src/gui_pkg/src/gui</text>
<text text-anchor="middle" x="820.5" y="-197.5" font-family="Helvetica,sans-Serif" font-size="10.00">_node.cpp</text>
</a>
</g>
</g>
<!-- Node2 -->
<g id="node2" class="node">
<title>Node2</title>
<g id="a_node2"><a xlink:href="gui__node_8hpp.html" target="_top" xlink:title=" ">
<polygon fill="none" stroke="black" points="769.5,-123.5 769.5,-153.5 871.5,-153.5 871.5,-123.5 769.5,-123.5"/>
<text text-anchor="start" x="777.5" y="-141.5" font-family="Helvetica,sans-Serif" font-size="10.00">../include/gui_pkg</text>
<text text-anchor="middle" x="820.5" y="-130.5" font-family="Helvetica,sans-Serif" font-size="10.00">/gui_node.hpp</text>
</a>
</g>
</g>
<!-- Node1&#45;&gt;Node2 -->
<g id="edge1" class="edge">
<title>Node1&#45;&gt;Node2</title>
<path fill="none" stroke="midnightblue" d="M820.5,-190.4C820.5,-182.64 820.5,-172.81 820.5,-163.86"/>
<polygon fill="midnightblue" stroke="midnightblue" points="824,-163.58 820.5,-153.58 817,-163.58 824,-163.58"/>
</g>
<!-- Node3 -->
<g id="node3" class="node">
<title>Node3</title>
<g id="a_node3"><a xlink:title=" ">
<polygon fill="none" stroke="#bfbfbf" points="0,-62 0,-81 99,-81 99,-62 0,-62"/>
<text text-anchor="middle" x="49.5" y="-69" font-family="Helvetica,sans-Serif" font-size="10.00">rclcpp/rclcpp.hpp</text>
</a>
</g>
</g>
<!-- Node2&#45;&gt;Node3 -->
<g id="edge2" class="edge">
<title>Node2&#45;&gt;Node3</title>
<path fill="none" stroke="midnightblue" d="M769.23,-136.85C651.67,-134.7 353.95,-125.58 108.5,-87 102.49,-86.06 96.2,-84.8 90.05,-83.42"/>
<polygon fill="midnightblue" stroke="midnightblue" points="90.46,-79.92 79.92,-81.02 88.85,-86.74 90.46,-79.92"/>
</g>
<!-- Node4 -->
<g id="node4" class="node">
<title>Node4</title>
<g id="a_node4"><a xlink:title=" ">
<polygon fill="none" stroke="#bfbfbf" points="117.5,-62 117.5,-81 259.5,-81 259.5,-62 117.5,-62"/>
<text text-anchor="middle" x="188.5" y="-69" font-family="Helvetica,sans-Serif" font-size="10.00">sensor_msgs/msg/joy.hpp</text>
</a>
</g>
</g>
<!-- Node2&#45;&gt;Node4 -->
<g id="edge3" class="edge">
<title>Node2&#45;&gt;Node4</title>
<path fill="none" stroke="midnightblue" d="M769.34,-134.33C671.68,-127.95 452.06,-111.98 268.5,-87 259.76,-85.81 250.52,-84.34 241.55,-82.79"/>
<polygon fill="midnightblue" stroke="midnightblue" points="242.03,-79.32 231.57,-81.02 240.81,-86.21 242.03,-79.32"/>
</g>
<!-- Node5 -->
<g id="node5" class="node">
<title>Node5</title>
<g id="a_node5"><a xlink:title=" ">
<polygon fill="none" stroke="#bfbfbf" points="277.5,-56.5 277.5,-86.5 395.5,-86.5 395.5,-56.5 277.5,-56.5"/>
<text text-anchor="start" x="285.5" y="-74.5" font-family="Helvetica,sans-Serif" font-size="10.00">ecat_msgs/msg/data</text>
<text text-anchor="middle" x="336.5" y="-63.5" font-family="Helvetica,sans-Serif" font-size="10.00">_received.hpp</text>
</a>
</g>
</g>
<!-- Node2&#45;&gt;Node5 -->
<g id="edge4" class="edge">
<title>Node2&#45;&gt;Node5</title>
<path fill="none" stroke="midnightblue" d="M769.38,-132.78C692.61,-125.36 542.82,-109.63 406.02,-87.17"/>
<polygon fill="midnightblue" stroke="midnightblue" points="406.22,-83.65 395.78,-85.47 405.07,-90.56 406.22,-83.65"/>
</g>
<!-- Node6 -->
<g id="node6" class="node">
<title>Node6</title>
<g id="a_node6"><a xlink:title=" ">
<polygon fill="none" stroke="#bfbfbf" points="413.5,-56.5 413.5,-86.5 531.5,-86.5 531.5,-56.5 413.5,-56.5"/>
<text text-anchor="start" x="421.5" y="-74.5" font-family="Helvetica,sans-Serif" font-size="10.00">ecat_msgs/msg/data</text>
<text text-anchor="middle" x="472.5" y="-63.5" font-family="Helvetica,sans-Serif" font-size="10.00">_sent.hpp</text>
</a>
</g>
</g>
<!-- Node2&#45;&gt;Node6 -->
<g id="edge5" class="edge">
<title>Node2&#45;&gt;Node6</title>
<path fill="none" stroke="midnightblue" d="M769.32,-128.77C715.19,-119.42 627.07,-103.89 541.67,-87.2"/>
<polygon fill="midnightblue" stroke="midnightblue" points="542.3,-83.76 531.82,-85.26 540.95,-90.62 542.3,-83.76"/>
</g>
<!-- Node7 -->
<g id="node7" class="node">
<title>Node7</title>
<g id="a_node7"><a xlink:title=" ">
<polygon fill="none" stroke="#bfbfbf" points="549.5,-56.5 549.5,-86.5 697.5,-86.5 697.5,-56.5 549.5,-56.5"/>
<text text-anchor="start" x="557.5" y="-74.5" font-family="Helvetica,sans-Serif" font-size="10.00">ecat_msgs/msg/gui_button</text>
<text text-anchor="middle" x="623.5" y="-63.5" font-family="Helvetica,sans-Serif" font-size="10.00">_data.hpp</text>
</a>
</g>
</g>
<!-- Node2&#45;&gt;Node7 -->
<g id="edge6" class="edge">
<title>Node2&#45;&gt;Node7</title>
<path fill="none" stroke="midnightblue" d="M777.75,-123.4C747.81,-113.52 707.61,-100.25 675.76,-89.74"/>
<polygon fill="midnightblue" stroke="midnightblue" points="676.76,-86.39 666.16,-86.58 674.56,-93.03 676.76,-86.39"/>
</g>
<!-- Node8 -->
<g id="node8" class="node">
<title>Node8</title>
<g id="a_node8"><a xlink:title=" ">
<polygon fill="none" stroke="#bfbfbf" points="562,-0.5 562,-19.5 609,-19.5 609,-0.5 562,-0.5"/>
<text text-anchor="middle" x="585.5" y="-7.5" font-family="Helvetica,sans-Serif" font-size="10.00">vector</text>
</a>
</g>
</g>
<!-- Node2&#45;&gt;Node8 -->
<g id="edge7" class="edge">
<title>Node2&#45;&gt;Node8</title>
<path fill="none" stroke="midnightblue" d="M795.2,-123.46C778.79,-113.94 757.23,-100.64 739.5,-87 723.55,-74.73 723.6,-66.61 706.5,-56 691.53,-46.71 649.3,-31.86 618.95,-21.78"/>
<polygon fill="midnightblue" stroke="midnightblue" points="619.76,-18.36 609.17,-18.56 617.57,-25.01 619.76,-18.36"/>
</g>
<!-- Node9 -->
<g id="node9" class="node">
<title>Node9</title>
<g id="a_node9"><a xlink:title=" ">
<polygon fill="none" stroke="#bfbfbf" points="627.5,-0.5 627.5,-19.5 677.5,-19.5 677.5,-0.5 627.5,-0.5"/>
<text text-anchor="middle" x="652.5" y="-7.5" font-family="Helvetica,sans-Serif" font-size="10.00">chrono</text>
</a>
</g>
</g>
<!-- Node2&#45;&gt;Node9 -->
<g id="edge8" class="edge">
<title>Node2&#45;&gt;Node9</title>
<path fill="none" stroke="midnightblue" d="M809,-123.49C794.22,-106.11 767.17,-76.3 739.5,-56 721.8,-43.02 699.83,-31.68 682.39,-23.64"/>
<polygon fill="midnightblue" stroke="midnightblue" points="683.79,-20.43 673.23,-19.52 680.91,-26.81 683.79,-20.43"/>
</g>
<!-- Node10 -->
<g id="node10" class="node">
<title>Node10</title>
<g id="a_node10"><a xlink:title=" ">
<polygon fill="none" stroke="#bfbfbf" points="695.5,-0.5 695.5,-19.5 753.5,-19.5 753.5,-0.5 695.5,-0.5"/>
<text text-anchor="middle" x="724.5" y="-7.5" font-family="Helvetica,sans-Serif" font-size="10.00">memory</text>
</a>
</g>
</g>
<!-- Node2&#45;&gt;Node10 -->
<g id="edge9" class="edge">
<title>Node2&#45;&gt;Node10</title>
<path fill="none" stroke="midnightblue" d="M814.96,-123.27C807.9,-106.19 794.52,-77.21 777.5,-56 768.29,-44.53 755.84,-33.78 745.32,-25.66"/>
<polygon fill="midnightblue" stroke="midnightblue" points="747.16,-22.67 737.05,-19.51 742.98,-28.29 747.16,-22.67"/>
</g>
<!-- Node11 -->
<g id="node11" class="node">
<title>Node11</title>
<g id="a_node11"><a xlink:title=" ">
<polygon fill="none" stroke="#bfbfbf" points="772,-0.5 772,-19.5 837,-19.5 837,-0.5 772,-0.5"/>
<text text-anchor="middle" x="804.5" y="-7.5" font-family="Helvetica,sans-Serif" font-size="10.00">functional</text>
</a>
</g>
</g>
<!-- Node2&#45;&gt;Node11 -->
<g id="edge10" class="edge">
<title>Node2&#45;&gt;Node11</title>
<path fill="none" stroke="midnightblue" d="M820.39,-123.28C820.1,-106.96 819.05,-79.41 815.5,-56 814.16,-47.14 811.9,-37.48 809.78,-29.38"/>
<polygon fill="midnightblue" stroke="midnightblue" points="813.1,-28.25 807.07,-19.54 806.35,-30.11 813.1,-28.25"/>
</g>
<!-- Node12 -->
<g id="node12" class="node">
<title>Node12</title>
<g id="a_node12"><a xlink:title=" ">
<polygon fill="none" stroke="#bfbfbf" points="855.5,-0.5 855.5,-19.5 899.5,-19.5 899.5,-0.5 855.5,-0.5"/>
<text text-anchor="middle" x="877.5" y="-7.5" font-family="Helvetica,sans-Serif" font-size="10.00">string</text>
</a>
</g>
</g>
<!-- Node2&#45;&gt;Node12 -->
<g id="edge11" class="edge">
<title>Node2&#45;&gt;Node12</title>
<path fill="none" stroke="midnightblue" d="M826.82,-123.48C837.21,-100.41 857.91,-54.48 869.38,-29.03"/>
<polygon fill="midnightblue" stroke="midnightblue" points="872.62,-30.34 873.54,-19.79 866.24,-27.47 872.62,-30.34"/>
</g>
<!-- Node13 -->
<g id="node13" class="node">
<title>Node13</title>
<g id="a_node13"><a xlink:title=" ">
<polygon fill="none" stroke="#bfbfbf" points="995.5,-0.5 995.5,-19.5 1045.5,-19.5 1045.5,-0.5 995.5,-0.5"/>
<text text-anchor="middle" x="1020.5" y="-7.5" font-family="Helvetica,sans-Serif" font-size="10.00">cstdint</text>
</a>
</g>
</g>
<!-- Node2&#45;&gt;Node13 -->
<g id="edge12" class="edge">
<title>Node2&#45;&gt;Node13</title>
<path fill="none" stroke="midnightblue" d="M871.56,-132.36C906.55,-126.49 952.13,-113.91 983.5,-87 1000.95,-72.03 1010.9,-46.91 1015.99,-29.68"/>
<polygon fill="midnightblue" stroke="midnightblue" points="1019.47,-30.25 1018.67,-19.68 1012.7,-28.44 1019.47,-30.25"/>
</g>
<!-- Node14 -->
<g id="node14" class="node">
<title>Node14</title>
<g id="a_node14"><a xlink:title=" ">
<polygon fill="none" stroke="#bfbfbf" points="1063.5,-0.5 1063.5,-19.5 1107.5,-19.5 1107.5,-0.5 1063.5,-0.5"/>
<text text-anchor="middle" x="1085.5" y="-7.5" font-family="Helvetica,sans-Serif" font-size="10.00">ctime</text>
</a>
</g>
</g>
<!-- Node2&#45;&gt;Node14 -->
<g id="edge13" class="edge">
<title>Node2&#45;&gt;Node14</title>
<path fill="none" stroke="midnightblue" d="M871.91,-131C911.32,-124.34 965.99,-111.38 1008.5,-87 1035.14,-71.72 1059.16,-44.96 1073.04,-27.61"/>
<polygon fill="midnightblue" stroke="midnightblue" points="1075.96,-29.56 1079.33,-19.51 1070.44,-25.26 1075.96,-29.56"/>
</g>
<!-- Node15 -->
<g id="node15" class="node">
<title>Node15</title>
<g id="a_node15"><a xlink:title=" ">
<polygon fill="none" stroke="#bfbfbf" points="1126,-0.5 1126,-19.5 1165,-19.5 1165,-0.5 1126,-0.5"/>
<text text-anchor="middle" x="1145.5" y="-7.5" font-family="Helvetica,sans-Serif" font-size="10.00">ratio</text>
</a>
</g>
</g>
<!-- Node2&#45;&gt;Node15 -->
<g id="edge14" class="edge">
<title>Node2&#45;&gt;Node15</title>
<path fill="none" stroke="midnightblue" d="M871.53,-131.81C917.58,-125.32 986.35,-112.15 1041.5,-87 1075.53,-71.48 1109.49,-43.8 1128.94,-26.47"/>
<polygon fill="midnightblue" stroke="midnightblue" points="1131.53,-28.85 1136.57,-19.53 1126.82,-23.67 1131.53,-28.85"/>
</g>
<!-- Node16 -->
<g id="node16" class="node">
<title>Node16</title>
<g id="a_node16"><a xlink:title=" ">
<polygon fill="none" stroke="#bfbfbf" points="1183,-0.5 1183,-19.5 1238,-19.5 1238,-0.5 1183,-0.5"/>
<text text-anchor="middle" x="1210.5" y="-7.5" font-family="Helvetica,sans-Serif" font-size="10.00">fstream</text>
</a>
</g>
</g>
<!-- Node2&#45;&gt;Node16 -->
<g id="edge15" class="edge">
<title>Node2&#45;&gt;Node16</title>
<path fill="none" stroke="midnightblue" d="M871.73,-132.7C925.19,-126.52 1010.8,-113.27 1080.5,-87 1091.68,-82.79 1153.19,-45.83 1187.44,-25.05"/>
<polygon fill="midnightblue" stroke="midnightblue" points="1189.59,-27.84 1196.32,-19.66 1185.95,-21.86 1189.59,-27.84"/>
</g>
<!-- Node17 -->
<g id="node17" class="node">
<title>Node17</title>
<g id="a_node17"><a xlink:href="gui__pkg_2include_2gui__pkg_2timing_8hpp.html" target="_top" xlink:title=" ">
<polygon fill="none" stroke="black" points="906,-62 906,-81 975,-81 975,-62 906,-62"/>
<text text-anchor="middle" x="940.5" y="-69" font-family="Helvetica,sans-Serif" font-size="10.00">timing.hpp</text>
</a>
</g>
</g>
<!-- Node2&#45;&gt;Node17 -->
<g id="edge16" class="edge">
<title>Node2&#45;&gt;Node17</title>
<path fill="none" stroke="midnightblue" d="M846.54,-123.4C867.13,-112.24 895.67,-96.78 915.88,-85.83"/>
<polygon fill="midnightblue" stroke="midnightblue" points="917.67,-88.85 924.79,-81.01 914.33,-82.69 917.67,-88.85"/>
</g>
<!-- Node19 -->
<g id="node19" class="node">
<title>Node19</title>
<g id="a_node19"><a xlink:href="gui__globals_8hpp.html" target="_top" xlink:title=" ">
<polygon fill="none" stroke="black" points="1146,-62 1146,-81 1239,-81 1239,-62 1146,-62"/>
<text text-anchor="middle" x="1192.5" y="-69" font-family="Helvetica,sans-Serif" font-size="10.00">gui_globals.hpp</text>
</a>
</g>
</g>
<!-- Node2&#45;&gt;Node19 -->
<g id="edge27" class="edge">
<title>Node2&#45;&gt;Node19</title>
<path fill="none" stroke="midnightblue" d="M871.61,-130.36C933.4,-121.46 1040.45,-105.19 1131.5,-87 1136.97,-85.91 1142.7,-84.67 1148.35,-83.39"/>
<polygon fill="midnightblue" stroke="midnightblue" points="1149.44,-86.73 1158.4,-81.07 1147.87,-79.91 1149.44,-86.73"/>
</g>
<!-- Node17&#45;&gt;Node8 -->
<g id="edge17" class="edge">
<title>Node17&#45;&gt;Node8</title>
<path fill="none" stroke="midnightblue" d="M905.96,-66.36C848.49,-59.19 729.49,-43.19 619.18,-19.93"/>
<polygon fill="midnightblue" stroke="midnightblue" points="619.73,-16.47 609.22,-17.81 618.27,-23.31 619.73,-16.47"/>
</g>
<!-- Node17&#45;&gt;Node9 -->
<g id="edge18" class="edge">
<title>Node17&#45;&gt;Node9</title>
<path fill="none" stroke="midnightblue" d="M905.84,-64.32C858.68,-55.75 771.44,-39.36 687.64,-20.15"/>
<polygon fill="midnightblue" stroke="midnightblue" points="688.24,-16.7 677.71,-17.86 686.66,-23.52 688.24,-16.7"/>
</g>
<!-- Node17&#45;&gt;Node10 -->
<g id="edge19" class="edge">
<title>Node17&#45;&gt;Node10</title>
<path fill="none" stroke="midnightblue" d="M909.55,-61.98C871.08,-51.38 805.39,-33.28 763.51,-21.74"/>
<polygon fill="midnightblue" stroke="midnightblue" points="764.23,-18.31 753.66,-19.03 762.37,-25.06 764.23,-18.31"/>
</g>
<!-- Node17&#45;&gt;Node11 -->
<g id="edge20" class="edge">
<title>Node17&#45;&gt;Node11</title>
<path fill="none" stroke="midnightblue" d="M921.01,-61.98C898.09,-51.95 859.81,-35.2 833.42,-23.65"/>
<polygon fill="midnightblue" stroke="midnightblue" points="834.51,-20.31 823.95,-19.51 831.71,-26.72 834.51,-20.31"/>
</g>
<!-- Node17&#45;&gt;Node12 -->
<g id="edge21" class="edge">
<title>Node17&#45;&gt;Node12</title>
<path fill="none" stroke="midnightblue" d="M931.47,-61.98C921.74,-52.78 906.04,-37.96 894.08,-26.66"/>
<polygon fill="midnightblue" stroke="midnightblue" points="896.18,-23.83 886.51,-19.51 891.38,-28.92 896.18,-23.83"/>
</g>
<!-- Node17&#45;&gt;Node13 -->
<g id="edge22" class="edge">
<title>Node17&#45;&gt;Node13</title>
<path fill="none" stroke="midnightblue" d="M951.96,-61.98C964.67,-52.52 985.41,-37.1 1000.75,-25.69"/>
<polygon fill="midnightblue" stroke="midnightblue" points="1003.12,-28.29 1009.06,-19.51 998.95,-22.67 1003.12,-28.29"/>
</g>
<!-- Node17&#45;&gt;Node14 -->
<g id="edge23" class="edge">
<title>Node17&#45;&gt;Node14</title>
<path fill="none" stroke="midnightblue" d="M961.27,-61.98C985.93,-51.86 1027.25,-34.9 1055.4,-23.35"/>
<polygon fill="midnightblue" stroke="midnightblue" points="1056.84,-26.54 1064.76,-19.51 1054.18,-20.07 1056.84,-26.54"/>
</g>
<!-- Node17&#45;&gt;Node15 -->
<g id="edge24" class="edge">
<title>Node17&#45;&gt;Node15</title>
<path fill="none" stroke="midnightblue" d="M971.08,-61.94C1004.31,-52.59 1059.21,-37.01 1115.99,-20.1"/>
<polygon fill="midnightblue" stroke="midnightblue" points="1117.28,-23.37 1125.86,-17.16 1115.28,-16.66 1117.28,-23.37"/>
</g>
<!-- Node17&#45;&gt;Node16 -->
<g id="edge25" class="edge">
<title>Node17&#45;&gt;Node16</title>
<path fill="none" stroke="midnightblue" d="M975.07,-63.4C1018.84,-54.34 1096.8,-37.93 1172.44,-20.43"/>
<polygon fill="midnightblue" stroke="midnightblue" points="1173.67,-23.74 1182.61,-18.07 1172.08,-16.92 1173.67,-23.74"/>
</g>
<!-- Node18 -->
<g id="node18" class="node">
<title>Node18</title>
<g id="a_node18"><a xlink:title=" ">
<polygon fill="none" stroke="#bfbfbf" points="917.5,-0.5 917.5,-19.5 977.5,-19.5 977.5,-0.5 917.5,-0.5"/>
<text text-anchor="middle" x="947.5" y="-7.5" font-family="Helvetica,sans-Serif" font-size="10.00">iostream</text>
</a>
</g>
</g>
<!-- Node17&#45;&gt;Node18 -->
<g id="edge26" class="edge">
<title>Node17&#45;&gt;Node18</title>
<path fill="none" stroke="midnightblue" d="M941.5,-61.98C942.49,-53.58 944.03,-40.48 945.3,-29.66"/>
<polygon fill="midnightblue" stroke="midnightblue" points="948.81,-29.85 946.5,-19.51 941.85,-29.03 948.81,-29.85"/>
</g>
</g>
</svg>
