<?xml version="1.0" encoding="UTF-8" standalone="no"?>
<!DOCTYPE svg PUBLIC "-//W3C//DTD SVG 1.1//EN"
 "http://www.w3.org/Graphics/SVG/1.1/DTD/svg11.dtd">
<!-- Generated by graphviz version 2.43.0 (0)
 -->
<!-- Title: src/gui_pkg/include/gui_pkg/timing.hpp Pages: 1 -->
<svg width="464pt" height="240pt"
 viewBox="0.00 0.00 464.00 240.00" xmlns="http://www.w3.org/2000/svg" xmlns:xlink="http://www.w3.org/1999/xlink">
<g id="graph0" class="graph" transform="scale(1 1) rotate(0) translate(4 236)">
<title>src/gui_pkg/include/gui_pkg/timing.hpp</title>
<!-- Node1 -->
<g id="node1" class="node">
<title>Node1</title>
<g id="a_node1"><a xlink:title=" ">
<polygon fill="#bfbfbf" stroke="black" points="174.5,-201.5 174.5,-231.5 287.5,-231.5 287.5,-201.5 174.5,-201.5"/>
<text text-anchor="start" x="182.5" y="-219.5" font-family="Helvetica,sans-Serif" font-size="10.00">src/gui_pkg/include</text>
<text text-anchor="middle" x="231" y="-208.5" font-family="Helvetica,sans-Serif" font-size="10.00">/gui_pkg/timing.hpp</text>
</a>
</g>
</g>
<!-- Node2 -->
<g id="node2" class="node">
<title>Node2</title>
<g id="a_node2"><a xlink:href="ecat__pkg_2src_2timing_8cpp.html" target="_top" xlink:title=" ">
<polygon fill="none" stroke="black" points="0,-140 0,-159 150,-159 150,-140 0,-140"/>
<text text-anchor="middle" x="75" y="-147" font-family="Helvetica,sans-Serif" font-size="10.00">src/ecat_pkg/src/timing.cpp</text>
</a>
</g>
</g>
<!-- Node1&#45;&gt;Node2 -->
<g id="edge1" class="edge">
<title>Node1&#45;&gt;Node2</title>
<path fill="none" stroke="midnightblue" d="M187.7,-197.46C157.56,-184.9 118.74,-168.72 95.42,-159.01"/>
<polygon fill="midnightblue" stroke="midnightblue" points="186.57,-200.78 197.15,-201.4 189.27,-194.32 186.57,-200.78"/>
</g>
<!-- Node3 -->
<g id="node3" class="node">
<title>Node3</title>
<g id="a_node3"><a xlink:href="gui__node_8hpp.html" target="_top" xlink:title=" ">
<polygon fill="none" stroke="black" points="168,-134.5 168,-164.5 294,-164.5 294,-134.5 168,-134.5"/>
<text text-anchor="start" x="176" y="-152.5" font-family="Helvetica,sans-Serif" font-size="10.00">src/gui_pkg/include</text>
<text text-anchor="middle" x="231" y="-141.5" font-family="Helvetica,sans-Serif" font-size="10.00">/gui_pkg/gui_node.hpp</text>
</a>
</g>
</g>
<!-- Node1&#45;&gt;Node3 -->
<g id="edge2" class="edge">
<title>Node1&#45;&gt;Node3</title>
<path fill="none" stroke="midnightblue" d="M231,-191.11C231,-182.15 231,-172.32 231,-164.58"/>
<polygon fill="midnightblue" stroke="midnightblue" points="227.5,-191.4 231,-201.4 234.5,-191.4 227.5,-191.4"/>
</g>
<!-- Node8 -->
<g id="node8" class="node">
<title>Node8</title>
<g id="a_node8"><a xlink:href="gui__pkg_2src_2timing_8cpp.html" target="_top" xlink:title=" ">
<polygon fill="none" stroke="black" points="312,-140 312,-159 456,-159 456,-140 312,-140"/>
<text text-anchor="middle" x="384" y="-147" font-family="Helvetica,sans-Serif" font-size="10.00">src/gui_pkg/src/timing.cpp</text>
</a>
</g>
</g>
<!-- Node1&#45;&gt;Node8 -->
<g id="edge7" class="edge">
<title>Node1&#45;&gt;Node8</title>
<path fill="none" stroke="midnightblue" d="M273.47,-197.46C303.03,-184.9 341.1,-168.72 363.98,-159.01"/>
<polygon fill="midnightblue" stroke="midnightblue" points="272.03,-194.26 264.2,-201.4 274.77,-200.71 272.03,-194.26"/>
</g>
<!-- Node4 -->
<g id="node4" class="node">
<title>Node4</title>
<g id="a_node4"><a xlink:href="main__window_8hpp.html" target="_top" xlink:title=" ">
<polygon fill="none" stroke="black" points="83.5,-67.5 83.5,-97.5 232.5,-97.5 232.5,-67.5 83.5,-67.5"/>
<text text-anchor="start" x="91.5" y="-85.5" font-family="Helvetica,sans-Serif" font-size="10.00">src/gui_pkg/include</text>
<text text-anchor="middle" x="158" y="-74.5" font-family="Helvetica,sans-Serif" font-size="10.00">/gui_pkg/main_window.hpp</text>
</a>
</g>
</g>
<!-- Node3&#45;&gt;Node4 -->
<g id="edge3" class="edge">
<title>Node3&#45;&gt;Node4</title>
<path fill="none" stroke="midnightblue" d="M207.53,-127.6C196.5,-117.78 183.66,-106.34 173.81,-97.58"/>
<polygon fill="midnightblue" stroke="midnightblue" points="205.36,-130.36 215.16,-134.4 210.02,-125.13 205.36,-130.36"/>
</g>
<!-- Node7 -->
<g id="node7" class="node">
<title>Node7</title>
<g id="a_node7"><a xlink:href="gui__node_8cpp.html" target="_top" xlink:title=" ">
<polygon fill="none" stroke="black" points="250.5,-67.5 250.5,-97.5 357.5,-97.5 357.5,-67.5 250.5,-67.5"/>
<text text-anchor="start" x="258.5" y="-85.5" font-family="Helvetica,sans-Serif" font-size="10.00">src/gui_pkg/src/gui</text>
<text text-anchor="middle" x="304" y="-74.5" font-family="Helvetica,sans-Serif" font-size="10.00">_node.cpp</text>
</a>
</g>
</g>
<!-- Node3&#45;&gt;Node7 -->
<g id="edge6" class="edge">
<title>Node3&#45;&gt;Node7</title>
<path fill="none" stroke="midnightblue" d="M254.47,-127.6C265.5,-117.78 278.34,-106.34 288.19,-97.58"/>
<polygon fill="midnightblue" stroke="midnightblue" points="251.98,-125.13 246.84,-134.4 256.64,-130.36 251.98,-125.13"/>
</g>
<!-- Node5 -->
<g id="node5" class="node">
<title>Node5</title>
<g id="a_node5"><a xlink:href="gui__pkg_2src_2main_8cpp.html" target="_top" xlink:title=" ">
<polygon fill="none" stroke="black" points="17.5,-6 17.5,-25 154.5,-25 154.5,-6 17.5,-6"/>
<text text-anchor="middle" x="86" y="-13" font-family="Helvetica,sans-Serif" font-size="10.00">src/gui_pkg/src/main.cpp</text>
</a>
</g>
</g>
<!-- Node4&#45;&gt;Node5 -->
<g id="edge4" class="edge">
<title>Node4&#45;&gt;Node5</title>
<path fill="none" stroke="midnightblue" d="M134.93,-60.67C121.64,-48.67 105.63,-34.22 95.63,-25.19"/>
<polygon fill="midnightblue" stroke="midnightblue" points="132.61,-63.29 142.38,-67.4 137.3,-58.1 132.61,-63.29"/>
</g>
<!-- Node6 -->
<g id="node6" class="node">
<title>Node6</title>
<g id="a_node6"><a xlink:href="main__window_8cpp.html" target="_top" xlink:title=" ">
<polygon fill="none" stroke="black" points="172.5,-0.5 172.5,-30.5 289.5,-30.5 289.5,-0.5 172.5,-0.5"/>
<text text-anchor="start" x="180.5" y="-18.5" font-family="Helvetica,sans-Serif" font-size="10.00">src/gui_pkg/src/main</text>
<text text-anchor="middle" x="231" y="-7.5" font-family="Helvetica,sans-Serif" font-size="10.00">_window.cpp</text>
</a>
</g>
</g>
<!-- Node4&#45;&gt;Node6 -->
<g id="edge5" class="edge">
<title>Node4&#45;&gt;Node6</title>
<path fill="none" stroke="midnightblue" d="M181.47,-60.6C192.5,-50.78 205.34,-39.34 215.19,-30.58"/>
<polygon fill="midnightblue" stroke="midnightblue" points="178.98,-58.13 173.84,-67.4 183.64,-63.36 178.98,-58.13"/>
</g>
</g>
</svg>
