<?xml version="1.0" encoding="UTF-8" standalone="no"?>
<!DOCTYPE svg PUBLIC "-//W3C//DTD SVG 1.1//EN"
 "http://www.w3.org/Graphics/SVG/1.1/DTD/svg11.dtd">
<!-- Generated by graphviz version 2.43.0 (0)
 -->
<!-- Title: src/gui_pkg/include/gui_pkg/gui_globals.hpp Pages: 1 -->
<svg width="610pt" height="240pt"
 viewBox="0.00 0.00 610.00 240.00" xmlns="http://www.w3.org/2000/svg" xmlns:xlink="http://www.w3.org/1999/xlink">
<g id="graph0" class="graph" transform="scale(1 1) rotate(0) translate(4 236)">
<title>src/gui_pkg/include/gui_pkg/gui_globals.hpp</title>
<!-- Node1 -->
<g id="node1" class="node">
<title>Node1</title>
<g id="a_node1"><a xlink:title=" ">
<polygon fill="#bfbfbf" stroke="black" points="322,-201.5 322,-231.5 459,-231.5 459,-201.5 322,-201.5"/>
<text text-anchor="start" x="330" y="-219.5" font-family="Helvetica,sans-Serif" font-size="10.00">src/gui_pkg/include</text>
<text text-anchor="middle" x="390.5" y="-208.5" font-family="Helvetica,sans-Serif" font-size="10.00">/gui_pkg/gui_globals.hpp</text>
</a>
</g>
</g>
<!-- Node2 -->
<g id="node2" class="node">
<title>Node2</title>
<g id="a_node2"><a xlink:href="video__capture_8hpp.html" target="_top" xlink:title=" ">
<polygon fill="none" stroke="black" points="199,-134.5 199,-164.5 350,-164.5 350,-134.5 199,-134.5"/>
<text text-anchor="start" x="207" y="-152.5" font-family="Helvetica,sans-Serif" font-size="10.00">src/gui_pkg/include</text>
<text text-anchor="middle" x="274.5" y="-141.5" font-family="Helvetica,sans-Serif" font-size="10.00">/gui_pkg/video_capture.hpp</text>
</a>
</g>
</g>
<!-- Node1&#45;&gt;Node2 -->
<g id="edge1" class="edge">
<title>Node1&#45;&gt;Node2</title>
<path fill="none" stroke="midnightblue" d="M356.23,-196.3C338.08,-186.12 316.18,-173.85 299.62,-164.58"/>
<polygon fill="midnightblue" stroke="midnightblue" points="354.9,-199.56 365.33,-201.4 358.32,-193.45 354.9,-199.56"/>
</g>
<!-- Node6 -->
<g id="node6" class="node">
<title>Node6</title>
<g id="a_node6"><a xlink:href="main__window_8hpp.html" target="_top" xlink:title=" ">
<polygon fill="none" stroke="black" points="328,-67.5 328,-97.5 477,-97.5 477,-67.5 328,-67.5"/>
<text text-anchor="start" x="336" y="-85.5" font-family="Helvetica,sans-Serif" font-size="10.00">src/gui_pkg/include</text>
<text text-anchor="middle" x="402.5" y="-74.5" font-family="Helvetica,sans-Serif" font-size="10.00">/gui_pkg/main_window.hpp</text>
</a>
</g>
</g>
<!-- Node1&#45;&gt;Node6 -->
<g id="edge12" class="edge">
<title>Node1&#45;&gt;Node6</title>
<path fill="none" stroke="midnightblue" d="M392.69,-191.39C395.19,-163.9 399.19,-119.89 401.23,-97.52"/>
<polygon fill="midnightblue" stroke="midnightblue" points="389.2,-191.1 391.78,-201.37 396.18,-191.73 389.2,-191.1"/>
</g>
<!-- Node9 -->
<g id="node9" class="node">
<title>Node9</title>
<g id="a_node9"><a xlink:href="gui__node_8hpp.html" target="_top" xlink:title=" ">
<polygon fill="none" stroke="black" points="418.5,-134.5 418.5,-164.5 544.5,-164.5 544.5,-134.5 418.5,-134.5"/>
<text text-anchor="start" x="426.5" y="-152.5" font-family="Helvetica,sans-Serif" font-size="10.00">src/gui_pkg/include</text>
<text text-anchor="middle" x="481.5" y="-141.5" font-family="Helvetica,sans-Serif" font-size="10.00">/gui_pkg/gui_node.hpp</text>
</a>
</g>
</g>
<!-- Node1&#45;&gt;Node9 -->
<g id="edge9" class="edge">
<title>Node1&#45;&gt;Node9</title>
<path fill="none" stroke="midnightblue" d="M418.57,-195.45C432.57,-185.45 449.16,-173.6 461.79,-164.58"/>
<polygon fill="midnightblue" stroke="midnightblue" points="416.35,-192.74 410.25,-201.4 420.42,-198.43 416.35,-192.74"/>
</g>
<!-- Node3 -->
<g id="node3" class="node">
<title>Node3</title>
<g id="a_node3"><a xlink:href="endoscope__viewer_8hpp.html" target="_top" xlink:title=" ">
<polygon fill="none" stroke="black" points="0,-67.5 0,-97.5 173,-97.5 173,-67.5 0,-67.5"/>
<text text-anchor="start" x="8" y="-85.5" font-family="Helvetica,sans-Serif" font-size="10.00">src/gui_pkg/include</text>
<text text-anchor="middle" x="86.5" y="-74.5" font-family="Helvetica,sans-Serif" font-size="10.00">/gui_pkg/endoscope_viewer.hpp</text>
</a>
</g>
</g>
<!-- Node2&#45;&gt;Node3 -->
<g id="edge2" class="edge">
<title>Node2&#45;&gt;Node3</title>
<path fill="none" stroke="midnightblue" d="M224.15,-131.09C193.8,-120.6 155.65,-107.41 127.21,-97.58"/>
<polygon fill="midnightblue" stroke="midnightblue" points="223.11,-134.44 233.71,-134.4 225.4,-127.82 223.11,-134.44"/>
</g>
<!-- Node2&#45;&gt;Node6 -->
<g id="edge5" class="edge">
<title>Node2&#45;&gt;Node6</title>
<path fill="none" stroke="midnightblue" d="M311.22,-129.85C331.46,-119.58 356.17,-107.03 374.78,-97.58"/>
<polygon fill="midnightblue" stroke="midnightblue" points="309.61,-126.75 302.27,-134.4 312.78,-132.99 309.61,-126.75"/>
</g>
<!-- Node8 -->
<g id="node8" class="node">
<title>Node8</title>
<g id="a_node8"><a xlink:href="video__capture_8cpp.html" target="_top" xlink:title=" ">
<polygon fill="none" stroke="black" points="191,-67.5 191,-97.5 310,-97.5 310,-67.5 191,-67.5"/>
<text text-anchor="start" x="199" y="-85.5" font-family="Helvetica,sans-Serif" font-size="10.00">src/gui_pkg/src/video</text>
<text text-anchor="middle" x="250.5" y="-74.5" font-family="Helvetica,sans-Serif" font-size="10.00">_capture.cpp</text>
</a>
</g>
</g>
<!-- Node2&#45;&gt;Node8 -->
<g id="edge8" class="edge">
<title>Node2&#45;&gt;Node8</title>
<path fill="none" stroke="midnightblue" d="M265.82,-124.99C262.43,-115.8 258.65,-105.58 255.7,-97.58"/>
<polygon fill="midnightblue" stroke="midnightblue" points="262.55,-126.23 269.29,-134.4 269.11,-123.8 262.55,-126.23"/>
</g>
<!-- Node4 -->
<g id="node4" class="node">
<title>Node4</title>
<g id="a_node4"><a xlink:href="endoscope__viewer_8cpp.html" target="_top" xlink:title=" ">
<polygon fill="none" stroke="black" points="14,-0.5 14,-30.5 159,-30.5 159,-0.5 14,-0.5"/>
<text text-anchor="start" x="22" y="-18.5" font-family="Helvetica,sans-Serif" font-size="10.00">src/gui_pkg/src/endoscope</text>
<text text-anchor="middle" x="86.5" y="-7.5" font-family="Helvetica,sans-Serif" font-size="10.00">_viewer.cpp</text>
</a>
</g>
</g>
<!-- Node3&#45;&gt;Node4 -->
<g id="edge3" class="edge">
<title>Node3&#45;&gt;Node4</title>
<path fill="none" stroke="midnightblue" d="M86.5,-57.11C86.5,-48.15 86.5,-38.32 86.5,-30.58"/>
<polygon fill="midnightblue" stroke="midnightblue" points="83,-57.4 86.5,-67.4 90,-57.4 83,-57.4"/>
</g>
<!-- Node5 -->
<g id="node5" class="node">
<title>Node5</title>
<g id="a_node5"><a xlink:href="gui__pkg_2src_2main_8cpp.html" target="_top" xlink:title=" ">
<polygon fill="none" stroke="black" points="183,-6 183,-25 320,-25 320,-6 183,-6"/>
<text text-anchor="middle" x="251.5" y="-13" font-family="Helvetica,sans-Serif" font-size="10.00">src/gui_pkg/src/main.cpp</text>
</a>
</g>
</g>
<!-- Node3&#45;&gt;Node5 -->
<g id="edge4" class="edge">
<title>Node3&#45;&gt;Node5</title>
<path fill="none" stroke="midnightblue" d="M131.88,-63.62C163.82,-51.04 205.13,-34.77 229.91,-25.01"/>
<polygon fill="midnightblue" stroke="midnightblue" points="130.32,-60.47 122.3,-67.4 132.89,-66.99 130.32,-60.47"/>
</g>
<!-- Node6&#45;&gt;Node5 -->
<g id="edge6" class="edge">
<title>Node6&#45;&gt;Node5</title>
<path fill="none" stroke="midnightblue" d="M360.21,-63.3C331.09,-50.76 293.74,-34.68 271.26,-25.01"/>
<polygon fill="midnightblue" stroke="midnightblue" points="359.17,-66.66 369.74,-67.4 361.93,-60.23 359.17,-66.66"/>
</g>
<!-- Node7 -->
<g id="node7" class="node">
<title>Node7</title>
<g id="a_node7"><a xlink:href="main__window_8cpp.html" target="_top" xlink:title=" ">
<polygon fill="none" stroke="black" points="344,-0.5 344,-30.5 461,-30.5 461,-0.5 344,-0.5"/>
<text text-anchor="start" x="352" y="-18.5" font-family="Helvetica,sans-Serif" font-size="10.00">src/gui_pkg/src/main</text>
<text text-anchor="middle" x="402.5" y="-7.5" font-family="Helvetica,sans-Serif" font-size="10.00">_window.cpp</text>
</a>
</g>
</g>
<!-- Node6&#45;&gt;Node7 -->
<g id="edge7" class="edge">
<title>Node6&#45;&gt;Node7</title>
<path fill="none" stroke="midnightblue" d="M402.5,-57.11C402.5,-48.15 402.5,-38.32 402.5,-30.58"/>
<polygon fill="midnightblue" stroke="midnightblue" points="399,-57.4 402.5,-67.4 406,-57.4 399,-57.4"/>
</g>
<!-- Node9&#45;&gt;Node6 -->
<g id="edge10" class="edge">
<title>Node9&#45;&gt;Node6</title>
<path fill="none" stroke="midnightblue" d="M456.44,-127.88C444.44,-118.01 430.37,-106.43 419.61,-97.58"/>
<polygon fill="midnightblue" stroke="midnightblue" points="454.41,-130.75 464.36,-134.4 458.86,-125.34 454.41,-130.75"/>
</g>
<!-- Node10 -->
<g id="node10" class="node">
<title>Node10</title>
<g id="a_node10"><a xlink:href="gui__node_8cpp.html" target="_top" xlink:title=" ">
<polygon fill="none" stroke="black" points="495,-67.5 495,-97.5 602,-97.5 602,-67.5 495,-67.5"/>
<text text-anchor="start" x="503" y="-85.5" font-family="Helvetica,sans-Serif" font-size="10.00">src/gui_pkg/src/gui</text>
<text text-anchor="middle" x="548.5" y="-74.5" font-family="Helvetica,sans-Serif" font-size="10.00">_node.cpp</text>
</a>
</g>
</g>
<!-- Node9&#45;&gt;Node10 -->
<g id="edge11" class="edge">
<title>Node9&#45;&gt;Node10</title>
<path fill="none" stroke="midnightblue" d="M503.34,-127.31C513.39,-117.56 525.04,-106.26 533.99,-97.58"/>
<polygon fill="midnightblue" stroke="midnightblue" points="500.78,-124.92 496.04,-134.4 505.65,-129.94 500.78,-124.92"/>
</g>
</g>
</svg>
