<?xml version="1.0" encoding="UTF-8" standalone="no"?>
<!DOCTYPE svg PUBLIC "-//W3C//DTD SVG 1.1//EN"
 "http://www.w3.org/Graphics/SVG/1.1/DTD/svg11.dtd">
<!-- Generated by graphviz version 2.43.0 (0)
 -->
<!-- Title: Graphical Class Hierarchy Pages: 1 -->
<svg width="169pt" height="104pt"
 viewBox="0.00 0.00 169.00 104.00" xmlns="http://www.w3.org/2000/svg" xmlns:xlink="http://www.w3.org/1999/xlink">
<g id="graph0" class="graph" transform="scale(1 1) rotate(0) translate(4 100)">
<title>Graphical Class Hierarchy</title>
<!-- Node15 -->
<g id="node1" class="node">
<title>Node15</title>
<g id="a_node1"><a xlink:title=" ">
<polygon fill="none" stroke="#bfbfbf" points="0,-38.5 0,-57.5 42,-57.5 42,-38.5 0,-38.5"/>
<text text-anchor="middle" x="21" y="-45.5" font-family="Helvetica,sans-Serif" font-size="10.00">Node</text>
</a>
</g>
</g>
<!-- Node0 -->
<g id="node2" class="node">
<title>Node0</title>
<g id="a_node2"><a xlink:href="classGUI_1_1GuiNode.html" target="_top" xlink:title="This node will be responsible from all GUI interaction and visualization of feedback information acqu...">
<polygon fill="none" stroke="black" points="78,-76.5 78,-95.5 161,-95.5 161,-76.5 78,-76.5"/>
<text text-anchor="middle" x="119.5" y="-83.5" font-family="Helvetica,sans-Serif" font-size="10.00">GUI::GuiNode</text>
</a>
</g>
</g>
<!-- Node15&#45;&gt;Node0 -->
<g id="edge1" class="edge">
<title>Node15&#45;&gt;Node0</title>
<path fill="none" stroke="midnightblue" d="M51.91,-59.78C65.53,-65.14 81.46,-71.41 94.31,-76.48"/>
<polygon fill="midnightblue" stroke="midnightblue" points="53.05,-56.47 42.47,-56.06 50.49,-62.98 53.05,-56.47"/>
</g>
<!-- Node17 -->
<g id="node3" class="node">
<title>Node17</title>
<g id="a_node3"><a xlink:href="classHapticNode.html" target="_top" xlink:title=" ">
<polygon fill="none" stroke="black" points="82.5,-38.5 82.5,-57.5 156.5,-57.5 156.5,-38.5 82.5,-38.5"/>
<text text-anchor="middle" x="119.5" y="-45.5" font-family="Helvetica,sans-Serif" font-size="10.00">HapticNode</text>
</a>
</g>
</g>
<!-- Node15&#45;&gt;Node17 -->
<g id="edge2" class="edge">
<title>Node15&#45;&gt;Node17</title>
<path fill="none" stroke="midnightblue" d="M52.63,-48C62.12,-48 72.66,-48 82.47,-48"/>
<polygon fill="midnightblue" stroke="midnightblue" points="52.47,-44.5 42.47,-48 52.47,-51.5 52.47,-44.5"/>
</g>
<!-- Node18 -->
<g id="node4" class="node">
<title>Node18</title>
<g id="a_node4"><a xlink:href="classSafetyNode.html" target="_top" xlink:title=" ">
<polygon fill="none" stroke="black" points="82.5,-0.5 82.5,-19.5 156.5,-19.5 156.5,-0.5 82.5,-0.5"/>
<text text-anchor="middle" x="119.5" y="-7.5" font-family="Helvetica,sans-Serif" font-size="10.00">SafetyNode</text>
</a>
</g>
</g>
<!-- Node15&#45;&gt;Node18 -->
<g id="edge3" class="edge">
<title>Node15&#45;&gt;Node18</title>
<path fill="none" stroke="midnightblue" d="M51.91,-36.22C65.53,-30.86 81.46,-24.59 94.31,-19.52"/>
<polygon fill="midnightblue" stroke="midnightblue" points="50.49,-33.02 42.47,-39.94 53.05,-39.53 50.49,-33.02"/>
</g>
</g>
</svg>
