<?xml version="1.0" encoding="UTF-8" standalone="no"?>
<!DOCTYPE svg PUBLIC "-//W3C//DTD SVG 1.1//EN"
 "http://www.w3.org/Graphics/SVG/1.1/DTD/svg11.dtd">
<!-- Generated by graphviz version 2.43.0 (0)
 -->
<!-- Title: src/gui_pkg/src/main_window.cpp Pages: 1 -->
<svg width="2287pt" height="285pt"
 viewBox="0.00 0.00 2287.00 285.00" xmlns="http://www.w3.org/2000/svg" xmlns:xlink="http://www.w3.org/1999/xlink">
<g id="graph0" class="graph" transform="scale(1 1) rotate(0) translate(4 281)">
<title>src/gui_pkg/src/main_window.cpp</title>
<!-- Node1 -->
<g id="node1" class="node">
<title>Node1</title>
<g id="a_node1"><a xlink:title=" ">
<polygon fill="#bfbfbf" stroke="black" points="1453.5,-246.5 1453.5,-276.5 1570.5,-276.5 1570.5,-246.5 1453.5,-246.5"/>
<text text-anchor="start" x="1461.5" y="-264.5" font-family="Helvetica,sans-Serif" font-size="10.00">src/gui_pkg/src/main</text>
<text text-anchor="middle" x="1512" y="-253.5" font-family="Helvetica,sans-Serif" font-size="10.00">_window.cpp</text>
</a>
</g>
</g>
<!-- Node2 -->
<g id="node2" class="node">
<title>Node2</title>
<g id="a_node2"><a xlink:href="main__window_8hpp.html" target="_top" xlink:title=" ">
<polygon fill="none" stroke="black" points="1458.5,-179.5 1458.5,-209.5 1565.5,-209.5 1565.5,-179.5 1458.5,-179.5"/>
<text text-anchor="start" x="1466.5" y="-197.5" font-family="Helvetica,sans-Serif" font-size="10.00">../include/gui_pkg</text>
<text text-anchor="middle" x="1512" y="-186.5" font-family="Helvetica,sans-Serif" font-size="10.00">/main_window.hpp</text>
</a>
</g>
</g>
<!-- Node1&#45;&gt;Node2 -->
<g id="edge1" class="edge">
<title>Node1&#45;&gt;Node2</title>
<path fill="none" stroke="midnightblue" d="M1512,-246.4C1512,-238.64 1512,-228.81 1512,-219.86"/>
<polygon fill="midnightblue" stroke="midnightblue" points="1515.5,-219.58 1512,-209.58 1508.5,-219.58 1515.5,-219.58"/>
</g>
<!-- Node3 -->
<g id="node3" class="node">
<title>Node3</title>
<g id="a_node3"><a xlink:title=" ">
<polygon fill="none" stroke="#bfbfbf" points="0,-0.5 0,-19.5 50,-19.5 50,-0.5 0,-0.5"/>
<text text-anchor="middle" x="25" y="-7.5" font-family="Helvetica,sans-Serif" font-size="10.00">chrono</text>
</a>
</g>
</g>
<!-- Node2&#45;&gt;Node3 -->
<g id="edge2" class="edge">
<title>Node2&#45;&gt;Node3</title>
<path fill="none" stroke="midnightblue" d="M1458.33,-193.27C1201.17,-191.98 105.03,-184.06 46,-143 10.53,-118.33 15.55,-59.71 20.92,-29.58"/>
<polygon fill="midnightblue" stroke="midnightblue" points="24.4,-30.05 22.92,-19.56 17.53,-28.68 24.4,-30.05"/>
</g>
<!-- Node4 -->
<g id="node4" class="node">
<title>Node4</title>
<g id="a_node4"><a xlink:title=" ">
<polygon fill="none" stroke="#bfbfbf" points="68,-0.5 68,-19.5 126,-19.5 126,-0.5 68,-0.5"/>
<text text-anchor="middle" x="97" y="-7.5" font-family="Helvetica,sans-Serif" font-size="10.00">memory</text>
</a>
</g>
</g>
<!-- Node2&#45;&gt;Node4 -->
<g id="edge3" class="edge">
<title>Node2&#45;&gt;Node4</title>
<path fill="none" stroke="midnightblue" d="M1458.08,-192.84C1204.69,-189.58 141.87,-174.08 79,-143 39.79,-123.61 12.84,-94.82 33,-56 40.15,-42.23 53.67,-31.78 66.45,-24.44"/>
<polygon fill="midnightblue" stroke="midnightblue" points="68.32,-27.41 75.52,-19.64 65.04,-21.23 68.32,-27.41"/>
</g>
<!-- Node5 -->
<g id="node5" class="node">
<title>Node5</title>
<g id="a_node5"><a xlink:title=" ">
<polygon fill="none" stroke="#bfbfbf" points="144,-0.5 144,-19.5 204,-19.5 204,-0.5 144,-0.5"/>
<text text-anchor="middle" x="174" y="-7.5" font-family="Helvetica,sans-Serif" font-size="10.00">iostream</text>
</a>
</g>
</g>
<!-- Node2&#45;&gt;Node5 -->
<g id="edge4" class="edge">
<title>Node2&#45;&gt;Node5</title>
<path fill="none" stroke="midnightblue" d="M1458.2,-192.41C1255.47,-188.13 537.76,-171.27 311,-143 190.25,-127.95 119.74,-181.43 43,-87 34.31,-76.31 35,-67.21 43,-56 48.54,-48.24 97.49,-32.82 133.94,-22.22"/>
<polygon fill="midnightblue" stroke="midnightblue" points="135.2,-25.5 143.84,-19.36 133.26,-18.77 135.2,-25.5"/>
</g>
<!-- Node6 -->
<g id="node6" class="node">
<title>Node6</title>
<g id="a_node6"><a xlink:title=" ">
<polygon fill="none" stroke="#bfbfbf" points="52.5,-62 52.5,-81 151.5,-81 151.5,-62 52.5,-62"/>
<text text-anchor="middle" x="102" y="-69" font-family="Helvetica,sans-Serif" font-size="10.00">rclcpp/rclcpp.hpp</text>
</a>
</g>
</g>
<!-- Node2&#45;&gt;Node6 -->
<g id="edge5" class="edge">
<title>Node2&#45;&gt;Node6</title>
<path fill="none" stroke="midnightblue" d="M1458.25,-193.67C1301.6,-193.58 832.1,-189.18 446,-143 315.66,-127.41 283.92,-116.48 156,-87 151.52,-85.97 146.84,-84.82 142.2,-83.63"/>
<polygon fill="midnightblue" stroke="midnightblue" points="142.74,-80.16 132.18,-81.01 140.97,-86.93 142.74,-80.16"/>
</g>
<!-- Node7 -->
<g id="node7" class="node">
<title>Node7</title>
<g id="a_node7"><a xlink:href="gui__node_8hpp.html" target="_top" xlink:title=" ">
<polygon fill="none" stroke="black" points="455,-123.5 455,-142.5 537,-142.5 537,-123.5 455,-123.5"/>
<text text-anchor="middle" x="496" y="-130.5" font-family="Helvetica,sans-Serif" font-size="10.00">gui_node.hpp</text>
</a>
</g>
</g>
<!-- Node2&#45;&gt;Node7 -->
<g id="edge6" class="edge">
<title>Node2&#45;&gt;Node7</title>
<path fill="none" stroke="midnightblue" d="M1458.45,-190.36C1281.97,-180.03 720.12,-147.13 547.17,-137"/>
<polygon fill="midnightblue" stroke="midnightblue" points="547.25,-133.5 537.06,-136.4 546.84,-140.48 547.25,-133.5"/>
</g>
<!-- Node20 -->
<g id="node20" class="node">
<title>Node20</title>
<g id="a_node20"><a xlink:href="gui__globals_8hpp.html" target="_top" xlink:title=" ">
<polygon fill="none" stroke="black" points="1198.5,-62 1198.5,-81 1291.5,-81 1291.5,-62 1198.5,-62"/>
<text text-anchor="middle" x="1245" y="-69" font-family="Helvetica,sans-Serif" font-size="10.00">gui_globals.hpp</text>
</a>
</g>
</g>
<!-- Node2&#45;&gt;Node20 -->
<g id="edge42" class="edge">
<title>Node2&#45;&gt;Node20</title>
<path fill="none" stroke="midnightblue" d="M1458.27,-188.18C1396.34,-181.05 1299.54,-166.49 1272,-143 1256.77,-130.01 1250.1,-107.42 1247.2,-91.31"/>
<polygon fill="midnightblue" stroke="midnightblue" points="1250.66,-90.78 1245.73,-81.4 1243.73,-91.8 1250.66,-90.78"/>
</g>
<!-- Node21 -->
<g id="node21" class="node">
<title>Node21</title>
<g id="a_node21"><a xlink:href="video__capture_8hpp.html" target="_top" xlink:title=" ">
<polygon fill="none" stroke="black" points="1280.5,-123.5 1280.5,-142.5 1387.5,-142.5 1387.5,-123.5 1280.5,-123.5"/>
<text text-anchor="middle" x="1334" y="-130.5" font-family="Helvetica,sans-Serif" font-size="10.00">video_capture.hpp</text>
</a>
</g>
</g>
<!-- Node2&#45;&gt;Node21 -->
<g id="edge33" class="edge">
<title>Node2&#45;&gt;Node21</title>
<path fill="none" stroke="midnightblue" d="M1469.82,-179.4C1439.19,-169.16 1398.23,-155.47 1369.33,-145.81"/>
<polygon fill="midnightblue" stroke="midnightblue" points="1370.23,-142.42 1359.64,-142.57 1368.02,-149.06 1370.23,-142.42"/>
</g>
<!-- Node29 -->
<g id="node29" class="node">
<title>Node29</title>
<g id="a_node29"><a xlink:title=" ">
<polygon fill="none" stroke="#bfbfbf" points="1405.5,-123.5 1405.5,-142.5 1506.5,-142.5 1506.5,-123.5 1405.5,-123.5"/>
<text text-anchor="middle" x="1456" y="-130.5" font-family="Helvetica,sans-Serif" font-size="10.00">ui_mainwindow.h</text>
</a>
</g>
</g>
<!-- Node2&#45;&gt;Node29 -->
<g id="edge43" class="edge">
<title>Node2&#45;&gt;Node29</title>
<path fill="none" stroke="midnightblue" d="M1498.73,-179.4C1490.42,-170.58 1479.7,-159.18 1471.08,-150.02"/>
<polygon fill="midnightblue" stroke="midnightblue" points="1473.55,-147.54 1464.15,-142.66 1468.45,-152.34 1473.55,-147.54"/>
</g>
<!-- Node30 -->
<g id="node30" class="node">
<title>Node30</title>
<g id="a_node30"><a xlink:title=" ">
<polygon fill="none" stroke="#bfbfbf" points="1524.5,-123.5 1524.5,-142.5 1611.5,-142.5 1611.5,-123.5 1524.5,-123.5"/>
<text text-anchor="middle" x="1568" y="-130.5" font-family="Helvetica,sans-Serif" font-size="10.00">QMainWindow</text>
</a>
</g>
</g>
<!-- Node2&#45;&gt;Node30 -->
<g id="edge44" class="edge">
<title>Node2&#45;&gt;Node30</title>
<path fill="none" stroke="midnightblue" d="M1525.27,-179.4C1533.58,-170.58 1544.3,-159.18 1552.92,-150.02"/>
<polygon fill="midnightblue" stroke="midnightblue" points="1555.55,-152.34 1559.85,-142.66 1550.45,-147.54 1555.55,-152.34"/>
</g>
<!-- Node31 -->
<g id="node31" class="node">
<title>Node31</title>
<g id="a_node31"><a xlink:title=" ">
<polygon fill="none" stroke="#bfbfbf" points="1629.5,-123.5 1629.5,-142.5 1708.5,-142.5 1708.5,-123.5 1629.5,-123.5"/>
<text text-anchor="middle" x="1669" y="-130.5" font-family="Helvetica,sans-Serif" font-size="10.00">QApplication</text>
</a>
</g>
</g>
<!-- Node2&#45;&gt;Node31 -->
<g id="edge45" class="edge">
<title>Node2&#45;&gt;Node31</title>
<path fill="none" stroke="midnightblue" d="M1549.21,-179.4C1575.78,-169.33 1611.19,-155.91 1636.61,-146.28"/>
<polygon fill="midnightblue" stroke="midnightblue" points="1638.04,-149.47 1646.16,-142.66 1635.56,-142.93 1638.04,-149.47"/>
</g>
<!-- Node32 -->
<g id="node32" class="node">
<title>Node32</title>
<g id="a_node32"><a xlink:title=" ">
<polygon fill="none" stroke="#bfbfbf" points="1726,-123.5 1726,-142.5 1846,-142.5 1846,-123.5 1726,-123.5"/>
<text text-anchor="middle" x="1786" y="-130.5" font-family="Helvetica,sans-Serif" font-size="10.00">QStandardItemModel</text>
</a>
</g>
</g>
<!-- Node2&#45;&gt;Node32 -->
<g id="edge46" class="edge">
<title>Node2&#45;&gt;Node32</title>
<path fill="none" stroke="midnightblue" d="M1565.81,-181.82C1615.42,-171.04 1688.47,-155.18 1736.63,-144.72"/>
<polygon fill="midnightblue" stroke="midnightblue" points="1737.48,-148.12 1746.51,-142.58 1735.99,-141.28 1737.48,-148.12"/>
</g>
<!-- Node33 -->
<g id="node33" class="node">
<title>Node33</title>
<g id="a_node33"><a xlink:title=" ">
<polygon fill="none" stroke="#bfbfbf" points="1864,-123.5 1864,-142.5 1938,-142.5 1938,-123.5 1864,-123.5"/>
<text text-anchor="middle" x="1901" y="-130.5" font-family="Helvetica,sans-Serif" font-size="10.00">QTableView</text>
</a>
</g>
</g>
<!-- Node2&#45;&gt;Node33 -->
<g id="edge47" class="edge">
<title>Node2&#45;&gt;Node33</title>
<path fill="none" stroke="midnightblue" d="M1565.59,-186.4C1631.15,-177.55 1745.76,-161.49 1853.77,-143.14"/>
<polygon fill="midnightblue" stroke="midnightblue" points="1854.6,-146.55 1863.87,-141.42 1853.42,-139.65 1854.6,-146.55"/>
</g>
<!-- Node34 -->
<g id="node34" class="node">
<title>Node34</title>
<g id="a_node34"><a xlink:title=" ">
<polygon fill="none" stroke="#bfbfbf" points="1956.5,-123.5 1956.5,-142.5 2039.5,-142.5 2039.5,-123.5 1956.5,-123.5"/>
<text text-anchor="middle" x="1998" y="-130.5" font-family="Helvetica,sans-Serif" font-size="10.00">QHeaderView</text>
</a>
</g>
</g>
<!-- Node2&#45;&gt;Node34 -->
<g id="edge48" class="edge">
<title>Node2&#45;&gt;Node34</title>
<path fill="none" stroke="midnightblue" d="M1565.71,-188.3C1646.05,-180.29 1802.53,-163.81 1945.98,-143.07"/>
<polygon fill="midnightblue" stroke="midnightblue" points="1946.89,-146.47 1956.28,-141.57 1945.88,-139.55 1946.89,-146.47"/>
</g>
<!-- Node35 -->
<g id="node35" class="node">
<title>Node35</title>
<g id="a_node35"><a xlink:title=" ">
<polygon fill="none" stroke="#bfbfbf" points="2057.5,-123.5 2057.5,-142.5 2110.5,-142.5 2110.5,-123.5 2057.5,-123.5"/>
<text text-anchor="middle" x="2084" y="-130.5" font-family="Helvetica,sans-Serif" font-size="10.00">QString</text>
</a>
</g>
</g>
<!-- Node2&#45;&gt;Node35 -->
<g id="edge49" class="edge">
<title>Node2&#45;&gt;Node35</title>
<path fill="none" stroke="midnightblue" d="M1565.73,-191.26C1661.07,-186.67 1866.15,-174.05 2047.36,-143.05"/>
<polygon fill="midnightblue" stroke="midnightblue" points="2048.09,-146.47 2057.34,-141.32 2046.89,-139.58 2048.09,-146.47"/>
</g>
<!-- Node36 -->
<g id="node36" class="node">
<title>Node36</title>
<g id="a_node36"><a xlink:title=" ">
<polygon fill="none" stroke="#bfbfbf" points="2129,-123.5 2129,-142.5 2209,-142.5 2209,-123.5 2129,-123.5"/>
<text text-anchor="middle" x="2169" y="-130.5" font-family="Helvetica,sans-Serif" font-size="10.00">QTextStream</text>
</a>
</g>
</g>
<!-- Node2&#45;&gt;Node36 -->
<g id="edge50" class="edge">
<title>Node2&#45;&gt;Node36</title>
<path fill="none" stroke="midnightblue" d="M1565.87,-190.82C1670.52,-185.22 1908.72,-170.57 2118.95,-143.01"/>
<polygon fill="midnightblue" stroke="midnightblue" points="2119.49,-146.47 2128.94,-141.69 2118.57,-139.53 2119.49,-146.47"/>
</g>
<!-- Node37 -->
<g id="node37" class="node">
<title>Node37</title>
<g id="a_node37"><a xlink:title=" ">
<polygon fill="none" stroke="#bfbfbf" points="2227,-123.5 2227,-142.5 2279,-142.5 2279,-123.5 2227,-123.5"/>
<text text-anchor="middle" x="2253" y="-130.5" font-family="Helvetica,sans-Serif" font-size="10.00">QTimer</text>
</a>
</g>
</g>
<!-- Node2&#45;&gt;Node37 -->
<g id="edge51" class="edge">
<title>Node2&#45;&gt;Node37</title>
<path fill="none" stroke="midnightblue" d="M1565.52,-192.95C1682.35,-191.06 1968.96,-182.56 2216.82,-142.9"/>
<polygon fill="midnightblue" stroke="midnightblue" points="2217.42,-146.35 2226.73,-141.3 2216.3,-139.44 2217.42,-146.35"/>
</g>
<!-- Node7&#45;&gt;Node3 -->
<g id="edge13" class="edge">
<title>Node7&#45;&gt;Node3</title>
<path fill="none" stroke="midnightblue" d="M454.92,-128.86C383.43,-122.89 239.43,-108.59 194,-87 175.53,-78.22 177.64,-66.35 160,-56 142.91,-45.97 94.23,-30.85 60.26,-20.94"/>
<polygon fill="midnightblue" stroke="midnightblue" points="60.82,-17.46 50.25,-18.05 58.88,-24.19 60.82,-17.46"/>
</g>
<!-- Node7&#45;&gt;Node4 -->
<g id="edge14" class="edge">
<title>Node7&#45;&gt;Node4</title>
<path fill="none" stroke="midnightblue" d="M454.88,-126.41C409.45,-119.62 334.45,-106.59 272,-87 243.11,-77.94 166.22,-43.05 124.63,-23.85"/>
<polygon fill="midnightblue" stroke="midnightblue" points="125.89,-20.58 115.35,-19.56 122.95,-26.93 125.89,-20.58"/>
</g>
<!-- Node7&#45;&gt;Node6 -->
<g id="edge7" class="edge">
<title>Node7&#45;&gt;Node6</title>
<path fill="none" stroke="midnightblue" d="M454.92,-127.57C392.32,-120.55 269.41,-105.73 166,-87 159.82,-85.88 153.33,-84.57 146.96,-83.21"/>
<polygon fill="midnightblue" stroke="midnightblue" points="147.62,-79.77 137.1,-81.03 146.11,-86.6 147.62,-79.77"/>
</g>
<!-- Node8 -->
<g id="node8" class="node">
<title>Node8</title>
<g id="a_node8"><a xlink:title=" ">
<polygon fill="none" stroke="#bfbfbf" points="524,-62 524,-81 666,-81 666,-62 524,-62"/>
<text text-anchor="middle" x="595" y="-69" font-family="Helvetica,sans-Serif" font-size="10.00">sensor_msgs/msg/joy.hpp</text>
</a>
</g>
</g>
<!-- Node7&#45;&gt;Node8 -->
<g id="edge8" class="edge">
<title>Node7&#45;&gt;Node8</title>
<path fill="none" stroke="midnightblue" d="M510.18,-123.48C526.36,-113.75 553.03,-97.73 572.14,-86.24"/>
<polygon fill="midnightblue" stroke="midnightblue" points="574.07,-89.16 580.84,-81.01 570.47,-83.16 574.07,-89.16"/>
</g>
<!-- Node9 -->
<g id="node9" class="node">
<title>Node9</title>
<g id="a_node9"><a xlink:title=" ">
<polygon fill="none" stroke="#bfbfbf" points="684,-56.5 684,-86.5 802,-86.5 802,-56.5 684,-56.5"/>
<text text-anchor="start" x="692" y="-74.5" font-family="Helvetica,sans-Serif" font-size="10.00">ecat_msgs/msg/data</text>
<text text-anchor="middle" x="743" y="-63.5" font-family="Helvetica,sans-Serif" font-size="10.00">_received.hpp</text>
</a>
</g>
</g>
<!-- Node7&#45;&gt;Node9 -->
<g id="edge9" class="edge">
<title>Node7&#45;&gt;Node9</title>
<path fill="none" stroke="midnightblue" d="M531.39,-123.48C568.67,-114.49 628.31,-100.13 674.78,-88.93"/>
<polygon fill="midnightblue" stroke="midnightblue" points="675.88,-92.27 684.79,-86.52 674.25,-85.46 675.88,-92.27"/>
</g>
<!-- Node10 -->
<g id="node10" class="node">
<title>Node10</title>
<g id="a_node10"><a xlink:title=" ">
<polygon fill="none" stroke="#bfbfbf" points="820,-56.5 820,-86.5 938,-86.5 938,-56.5 820,-56.5"/>
<text text-anchor="start" x="828" y="-74.5" font-family="Helvetica,sans-Serif" font-size="10.00">ecat_msgs/msg/data</text>
<text text-anchor="middle" x="879" y="-63.5" font-family="Helvetica,sans-Serif" font-size="10.00">_sent.hpp</text>
</a>
</g>
</g>
<!-- Node7&#45;&gt;Node10 -->
<g id="edge10" class="edge">
<title>Node7&#45;&gt;Node10</title>
<path fill="none" stroke="midnightblue" d="M537.17,-127.03C595.58,-119.78 706.05,-105.33 809.7,-87.16"/>
<polygon fill="midnightblue" stroke="midnightblue" points="810.47,-90.58 819.71,-85.39 809.25,-83.69 810.47,-90.58"/>
</g>
<!-- Node11 -->
<g id="node11" class="node">
<title>Node11</title>
<g id="a_node11"><a xlink:title=" ">
<polygon fill="none" stroke="#bfbfbf" points="956,-56.5 956,-86.5 1104,-86.5 1104,-56.5 956,-56.5"/>
<text text-anchor="start" x="964" y="-74.5" font-family="Helvetica,sans-Serif" font-size="10.00">ecat_msgs/msg/gui_button</text>
<text text-anchor="middle" x="1030" y="-63.5" font-family="Helvetica,sans-Serif" font-size="10.00">_data.hpp</text>
</a>
</g>
</g>
<!-- Node7&#45;&gt;Node11 -->
<g id="edge11" class="edge">
<title>Node7&#45;&gt;Node11</title>
<path fill="none" stroke="midnightblue" d="M537.16,-128.91C614.9,-122.86 788.85,-108.27 945.54,-87.14"/>
<polygon fill="midnightblue" stroke="midnightblue" points="946.39,-90.55 955.83,-85.74 945.45,-83.62 946.39,-90.55"/>
</g>
<!-- Node12 -->
<g id="node12" class="node">
<title>Node12</title>
<g id="a_node12"><a xlink:title=" ">
<polygon fill="none" stroke="#bfbfbf" points="1016.5,-0.5 1016.5,-19.5 1063.5,-19.5 1063.5,-0.5 1016.5,-0.5"/>
<text text-anchor="middle" x="1040" y="-7.5" font-family="Helvetica,sans-Serif" font-size="10.00">vector</text>
</a>
</g>
</g>
<!-- Node7&#45;&gt;Node12 -->
<g id="edge12" class="edge">
<title>Node7&#45;&gt;Node12</title>
<path fill="none" stroke="midnightblue" d="M537.47,-132.25C672.09,-132.65 1090.6,-130.36 1131,-87 1140.39,-76.92 1138.27,-67.7 1131,-56 1118.45,-35.8 1093.86,-24.39 1073.39,-18.12"/>
<polygon fill="midnightblue" stroke="midnightblue" points="1074.32,-14.75 1063.75,-15.44 1072.45,-21.49 1074.32,-14.75"/>
</g>
<!-- Node13 -->
<g id="node13" class="node">
<title>Node13</title>
<g id="a_node13"><a xlink:title=" ">
<polygon fill="none" stroke="#bfbfbf" points="222.5,-0.5 222.5,-19.5 287.5,-19.5 287.5,-0.5 222.5,-0.5"/>
<text text-anchor="middle" x="255" y="-7.5" font-family="Helvetica,sans-Serif" font-size="10.00">functional</text>
</a>
</g>
</g>
<!-- Node7&#45;&gt;Node13 -->
<g id="edge15" class="edge">
<title>Node7&#45;&gt;Node13</title>
<path fill="none" stroke="midnightblue" d="M454.64,-131.27C412.84,-128.63 348.14,-119.11 303,-87 282.78,-72.62 269.16,-46.78 261.74,-29.27"/>
<polygon fill="midnightblue" stroke="midnightblue" points="264.86,-27.63 257.92,-19.62 258.35,-30.2 264.86,-27.63"/>
</g>
<!-- Node14 -->
<g id="node14" class="node">
<title>Node14</title>
<g id="a_node14"><a xlink:title=" ">
<polygon fill="none" stroke="#bfbfbf" points="306,-0.5 306,-19.5 350,-19.5 350,-0.5 306,-0.5"/>
<text text-anchor="middle" x="328" y="-7.5" font-family="Helvetica,sans-Serif" font-size="10.00">string</text>
</a>
</g>
</g>
<!-- Node7&#45;&gt;Node14 -->
<g id="edge16" class="edge">
<title>Node7&#45;&gt;Node14</title>
<path fill="none" stroke="midnightblue" d="M454.58,-127.69C406.11,-121.7 330.26,-109.02 313,-87 299.82,-70.19 308.77,-44.98 317.46,-28.27"/>
<polygon fill="midnightblue" stroke="midnightblue" points="320.52,-29.97 322.38,-19.54 314.42,-26.53 320.52,-29.97"/>
</g>
<!-- Node15 -->
<g id="node15" class="node">
<title>Node15</title>
<g id="a_node15"><a xlink:title=" ">
<polygon fill="none" stroke="#bfbfbf" points="368,-0.5 368,-19.5 418,-19.5 418,-0.5 368,-0.5"/>
<text text-anchor="middle" x="393" y="-7.5" font-family="Helvetica,sans-Serif" font-size="10.00">cstdint</text>
</a>
</g>
</g>
<!-- Node7&#45;&gt;Node15 -->
<g id="edge17" class="edge">
<title>Node7&#45;&gt;Node15</title>
<path fill="none" stroke="midnightblue" d="M488.59,-123.3C471.52,-103.24 429.17,-53.49 407.01,-27.46"/>
<polygon fill="midnightblue" stroke="midnightblue" points="409.49,-24.97 400.34,-19.62 404.16,-29.51 409.49,-24.97"/>
</g>
<!-- Node16 -->
<g id="node16" class="node">
<title>Node16</title>
<g id="a_node16"><a xlink:title=" ">
<polygon fill="none" stroke="#bfbfbf" points="436,-0.5 436,-19.5 480,-19.5 480,-0.5 436,-0.5"/>
<text text-anchor="middle" x="458" y="-7.5" font-family="Helvetica,sans-Serif" font-size="10.00">ctime</text>
</a>
</g>
</g>
<!-- Node7&#45;&gt;Node16 -->
<g id="edge18" class="edge">
<title>Node7&#45;&gt;Node16</title>
<path fill="none" stroke="midnightblue" d="M493.27,-123.3C487.1,-103.68 472.02,-55.64 463.71,-29.19"/>
<polygon fill="midnightblue" stroke="midnightblue" points="467.04,-28.12 460.71,-19.62 460.37,-30.21 467.04,-28.12"/>
</g>
<!-- Node17 -->
<g id="node17" class="node">
<title>Node17</title>
<g id="a_node17"><a xlink:title=" ">
<polygon fill="none" stroke="#bfbfbf" points="498.5,-0.5 498.5,-19.5 537.5,-19.5 537.5,-0.5 498.5,-0.5"/>
<text text-anchor="middle" x="518" y="-7.5" font-family="Helvetica,sans-Serif" font-size="10.00">ratio</text>
</a>
</g>
</g>
<!-- Node7&#45;&gt;Node17 -->
<g id="edge19" class="edge">
<title>Node7&#45;&gt;Node17</title>
<path fill="none" stroke="midnightblue" d="M497.58,-123.3C501.13,-103.76 509.81,-56.06 514.63,-29.55"/>
<polygon fill="midnightblue" stroke="midnightblue" points="518.09,-30.09 516.43,-19.62 511.2,-28.84 518.09,-30.09"/>
</g>
<!-- Node18 -->
<g id="node18" class="node">
<title>Node18</title>
<g id="a_node18"><a xlink:title=" ">
<polygon fill="none" stroke="#bfbfbf" points="814.5,-0.5 814.5,-19.5 869.5,-19.5 869.5,-0.5 814.5,-0.5"/>
<text text-anchor="middle" x="842" y="-7.5" font-family="Helvetica,sans-Serif" font-size="10.00">fstream</text>
</a>
</g>
</g>
<!-- Node7&#45;&gt;Node18 -->
<g id="edge20" class="edge">
<title>Node7&#45;&gt;Node18</title>
<path fill="none" stroke="midnightblue" d="M537.21,-132.16C669.01,-132.25 1073.88,-129.08 1113,-87 1122.38,-76.91 1121.91,-66.51 1113,-56 1083.58,-21.29 947.49,-13.32 880.06,-11.52"/>
<polygon fill="midnightblue" stroke="midnightblue" points="879.94,-8.01 869.86,-11.28 879.77,-15.01 879.94,-8.01"/>
</g>
<!-- Node19 -->
<g id="node19" class="node">
<title>Node19</title>
<g id="a_node19"><a xlink:href="gui__pkg_2include_2gui__pkg_2timing_8hpp.html" target="_top" xlink:title=" ">
<polygon fill="none" stroke="black" points="322.5,-62 322.5,-81 391.5,-81 391.5,-62 322.5,-62"/>
<text text-anchor="middle" x="357" y="-69" font-family="Helvetica,sans-Serif" font-size="10.00">timing.hpp</text>
</a>
</g>
</g>
<!-- Node7&#45;&gt;Node19 -->
<g id="edge21" class="edge">
<title>Node7&#45;&gt;Node19</title>
<path fill="none" stroke="midnightblue" d="M476.08,-123.48C452.55,-113.4 413.19,-96.55 386.21,-85"/>
<polygon fill="midnightblue" stroke="midnightblue" points="387.45,-81.73 376.88,-81.01 384.69,-88.16 387.45,-81.73"/>
</g>
<!-- Node7&#45;&gt;Node20 -->
<g id="edge32" class="edge">
<title>Node7&#45;&gt;Node20</title>
<path fill="none" stroke="midnightblue" d="M537.36,-131.71C644.7,-130.44 940.76,-123.6 1184,-87 1190.36,-86.04 1197.03,-84.76 1203.53,-83.34"/>
<polygon fill="midnightblue" stroke="midnightblue" points="1204.57,-86.69 1213.54,-81.04 1203.01,-79.87 1204.57,-86.69"/>
</g>
<!-- Node19&#45;&gt;Node3 -->
<g id="edge23" class="edge">
<title>Node19&#45;&gt;Node3</title>
<path fill="none" stroke="midnightblue" d="M322.39,-65.68C268.44,-57.94 160.84,-41.59 60.22,-20.1"/>
<polygon fill="midnightblue" stroke="midnightblue" points="60.7,-16.63 50.19,-17.94 59.23,-23.47 60.7,-16.63"/>
</g>
<!-- Node19&#45;&gt;Node4 -->
<g id="edge24" class="edge">
<title>Node19&#45;&gt;Node4</title>
<path fill="none" stroke="midnightblue" d="M322.37,-62.72C280.64,-53.33 208.11,-36.93 136.18,-20.26"/>
<polygon fill="midnightblue" stroke="midnightblue" points="136.57,-16.76 126.04,-17.91 134.99,-23.58 136.57,-16.76"/>
</g>
<!-- Node19&#45;&gt;Node5 -->
<g id="edge31" class="edge">
<title>Node19&#45;&gt;Node5</title>
<path fill="none" stroke="midnightblue" d="M330.78,-61.98C298.98,-51.64 245.23,-34.16 209.68,-22.6"/>
<polygon fill="midnightblue" stroke="midnightblue" points="210.76,-19.27 200.17,-19.51 208.6,-25.93 210.76,-19.27"/>
</g>
<!-- Node19&#45;&gt;Node12 -->
<g id="edge22" class="edge">
<title>Node19&#45;&gt;Node12</title>
<path fill="none" stroke="midnightblue" d="M391.52,-67.27C423.52,-64.29 472.47,-59.77 515,-56 700.5,-39.54 922.97,-20.8 1006.31,-13.82"/>
<polygon fill="midnightblue" stroke="midnightblue" points="1006.78,-17.29 1016.45,-12.97 1006.19,-10.31 1006.78,-17.29"/>
</g>
<!-- Node19&#45;&gt;Node13 -->
<g id="edge25" class="edge">
<title>Node19&#45;&gt;Node13</title>
<path fill="none" stroke="midnightblue" d="M342.39,-61.98C325.65,-52.21 298,-36.08 278.28,-24.58"/>
<polygon fill="midnightblue" stroke="midnightblue" points="279.99,-21.52 269.59,-19.51 276.46,-27.57 279.99,-21.52"/>
</g>
<!-- Node19&#45;&gt;Node14 -->
<g id="edge26" class="edge">
<title>Node19&#45;&gt;Node14</title>
<path fill="none" stroke="midnightblue" d="M352.85,-61.98C348.62,-53.32 341.96,-39.65 336.6,-28.65"/>
<polygon fill="midnightblue" stroke="midnightblue" points="339.67,-26.96 332.15,-19.51 333.38,-30.03 339.67,-26.96"/>
</g>
<!-- Node19&#45;&gt;Node15 -->
<g id="edge27" class="edge">
<title>Node19&#45;&gt;Node15</title>
<path fill="none" stroke="midnightblue" d="M362.16,-61.98C367.45,-53.23 375.84,-39.37 382.53,-28.31"/>
<polygon fill="midnightblue" stroke="midnightblue" points="385.67,-29.88 387.85,-19.51 379.68,-26.25 385.67,-29.88"/>
</g>
<!-- Node19&#45;&gt;Node16 -->
<g id="edge28" class="edge">
<title>Node19&#45;&gt;Node16</title>
<path fill="none" stroke="midnightblue" d="M371.47,-61.98C387.97,-52.25 415.18,-36.23 434.68,-24.74"/>
<polygon fill="midnightblue" stroke="midnightblue" points="436.72,-27.6 443.56,-19.51 433.16,-21.57 436.72,-27.6"/>
</g>
<!-- Node19&#45;&gt;Node17 -->
<g id="edge29" class="edge">
<title>Node19&#45;&gt;Node17</title>
<path fill="none" stroke="midnightblue" d="M380.07,-61.98C408.63,-51.42 457.31,-33.43 488.54,-21.89"/>
<polygon fill="midnightblue" stroke="midnightblue" points="489.85,-25.13 498.02,-18.38 487.43,-18.57 489.85,-25.13"/>
</g>
<!-- Node19&#45;&gt;Node18 -->
<g id="edge30" class="edge">
<title>Node19&#45;&gt;Node18</title>
<path fill="none" stroke="midnightblue" d="M391.88,-66.22C480.26,-55.38 712.44,-26.89 804.05,-15.66"/>
<polygon fill="midnightblue" stroke="midnightblue" points="804.75,-19.1 814.25,-14.4 803.9,-12.15 804.75,-19.1"/>
</g>
<!-- Node21&#45;&gt;Node20 -->
<g id="edge41" class="edge">
<title>Node21&#45;&gt;Node20</title>
<path fill="none" stroke="midnightblue" d="M1321.25,-123.48C1306.97,-113.93 1283.6,-98.31 1266.49,-86.87"/>
<polygon fill="midnightblue" stroke="midnightblue" points="1267.99,-83.66 1257.73,-81.01 1264.1,-89.48 1267.99,-83.66"/>
</g>
<!-- Node22 -->
<g id="node22" class="node">
<title>Node22</title>
<g id="a_node22"><a xlink:title=" ">
<polygon fill="none" stroke="#bfbfbf" points="2054.5,-62 2054.5,-81 2115.5,-81 2115.5,-62 2054.5,-62"/>
<text text-anchor="middle" x="2085" y="-69" font-family="Helvetica,sans-Serif" font-size="10.00">QPixmap</text>
</a>
</g>
</g>
<!-- Node21&#45;&gt;Node22 -->
<g id="edge34" class="edge">
<title>Node21&#45;&gt;Node22</title>
<path fill="none" stroke="midnightblue" d="M1387.58,-124.02C1390.76,-123.65 1393.92,-123.3 1397,-123 1684.48,-94.55 1763.2,-146 2046,-87 2049.25,-86.32 2052.6,-85.42 2055.89,-84.39"/>
<polygon fill="midnightblue" stroke="midnightblue" points="2057.2,-87.64 2065.5,-81.06 2054.91,-81.03 2057.2,-87.64"/>
</g>
<!-- Node23 -->
<g id="node23" class="node">
<title>Node23</title>
<g id="a_node23"><a xlink:title=" ">
<polygon fill="none" stroke="#bfbfbf" points="1309.5,-62 1309.5,-81 1364.5,-81 1364.5,-62 1309.5,-62"/>
<text text-anchor="middle" x="1337" y="-69" font-family="Helvetica,sans-Serif" font-size="10.00">QImage</text>
</a>
</g>
</g>
<!-- Node21&#45;&gt;Node23 -->
<g id="edge35" class="edge">
<title>Node21&#45;&gt;Node23</title>
<path fill="none" stroke="midnightblue" d="M1334.43,-123.48C1334.85,-115.08 1335.51,-101.98 1336.06,-91.16"/>
<polygon fill="midnightblue" stroke="midnightblue" points="1339.56,-91.17 1336.57,-81.01 1332.57,-90.82 1339.56,-91.17"/>
</g>
<!-- Node24 -->
<g id="node24" class="node">
<title>Node24</title>
<g id="a_node24"><a xlink:title=" ">
<polygon fill="none" stroke="#bfbfbf" points="1383,-62 1383,-81 1441,-81 1441,-62 1383,-62"/>
<text text-anchor="middle" x="1412" y="-69" font-family="Helvetica,sans-Serif" font-size="10.00">QThread</text>
</a>
</g>
</g>
<!-- Node21&#45;&gt;Node24 -->
<g id="edge36" class="edge">
<title>Node21&#45;&gt;Node24</title>
<path fill="none" stroke="midnightblue" d="M1345.18,-123.48C1357.57,-114.02 1377.79,-98.6 1392.75,-87.19"/>
<polygon fill="midnightblue" stroke="midnightblue" points="1395.02,-89.86 1400.85,-81.01 1390.77,-84.29 1395.02,-89.86"/>
</g>
<!-- Node25 -->
<g id="node25" class="node">
<title>Node25</title>
<g id="a_node25"><a xlink:title=" ">
<polygon fill="none" stroke="#bfbfbf" points="1459,-62 1459,-81 1575,-81 1575,-62 1459,-62"/>
<text text-anchor="middle" x="1517" y="-69" font-family="Helvetica,sans-Serif" font-size="10.00">opencv2/opencv.hpp</text>
</a>
</g>
</g>
<!-- Node21&#45;&gt;Node25 -->
<g id="edge37" class="edge">
<title>Node21&#45;&gt;Node25</title>
<path fill="none" stroke="midnightblue" d="M1360.22,-123.48C1392.02,-113.14 1445.77,-95.66 1481.32,-84.1"/>
<polygon fill="midnightblue" stroke="midnightblue" points="1482.4,-87.43 1490.83,-81.01 1480.24,-80.77 1482.4,-87.43"/>
</g>
<!-- Node26 -->
<g id="node26" class="node">
<title>Node26</title>
<g id="a_node26"><a xlink:title=" ">
<polygon fill="none" stroke="#bfbfbf" points="1593.5,-62 1593.5,-81 1750.5,-81 1750.5,-62 1593.5,-62"/>
<text text-anchor="middle" x="1672" y="-69" font-family="Helvetica,sans-Serif" font-size="10.00">opencv2/highgui/highgui.hpp</text>
</a>
</g>
</g>
<!-- Node21&#45;&gt;Node26 -->
<g id="edge38" class="edge">
<title>Node21&#45;&gt;Node26</title>
<path fill="none" stroke="midnightblue" d="M1382.43,-123.48C1443.42,-112.74 1548.13,-94.31 1613.52,-82.79"/>
<polygon fill="midnightblue" stroke="midnightblue" points="1614.42,-86.19 1623.66,-81.01 1613.21,-79.3 1614.42,-86.19"/>
</g>
<!-- Node27 -->
<g id="node27" class="node">
<title>Node27</title>
<g id="a_node27"><a xlink:title=" ">
<polygon fill="none" stroke="#bfbfbf" points="1769,-62 1769,-81 1891,-81 1891,-62 1769,-62"/>
<text text-anchor="middle" x="1830" y="-69" font-family="Helvetica,sans-Serif" font-size="10.00">opencv2/imgproc.hpp</text>
</a>
</g>
</g>
<!-- Node21&#45;&gt;Node27 -->
<g id="edge39" class="edge">
<title>Node21&#45;&gt;Node27</title>
<path fill="none" stroke="midnightblue" d="M1387.6,-124.18C1390.78,-123.77 1393.93,-123.37 1397,-123 1557.95,-103.53 1599.73,-111.48 1760,-87 1767.25,-85.89 1774.89,-84.52 1782.35,-83.07"/>
<polygon fill="midnightblue" stroke="midnightblue" points="1783.24,-86.46 1792.35,-81.06 1781.86,-79.6 1783.24,-86.46"/>
</g>
<!-- Node28 -->
<g id="node28" class="node">
<title>Node28</title>
<g id="a_node28"><a xlink:title=" ">
<polygon fill="none" stroke="#bfbfbf" points="1909.5,-62 1909.5,-81 2036.5,-81 2036.5,-62 1909.5,-62"/>
<text text-anchor="middle" x="1973" y="-69" font-family="Helvetica,sans-Serif" font-size="10.00">opencv2/core/core.hpp</text>
</a>
</g>
</g>
<!-- Node21&#45;&gt;Node28 -->
<g id="edge40" class="edge">
<title>Node21&#45;&gt;Node28</title>
<path fill="none" stroke="midnightblue" d="M1387.58,-124.08C1390.77,-123.69 1393.92,-123.33 1397,-123 1619.85,-99.14 1677.87,-116.89 1900,-87 1908.1,-85.91 1916.66,-84.47 1924.95,-82.93"/>
<polygon fill="midnightblue" stroke="midnightblue" points="1925.73,-86.34 1934.88,-81 1924.4,-79.47 1925.73,-86.34"/>
</g>
</g>
</svg>
