<?xml version="1.0" encoding="UTF-8" standalone="no"?>
<!DOCTYPE svg PUBLIC "-//W3C//DTD SVG 1.1//EN"
 "http://www.w3.org/Graphics/SVG/1.1/DTD/svg11.dtd">
<!-- Generated by graphviz version 2.43.0 (0)
 -->
<!-- Title: src/safety_pkg/src/safety_node.cpp Pages: 1 -->
<svg width="1658pt" height="162pt"
 viewBox="0.00 0.00 1658.00 162.00" xmlns="http://www.w3.org/2000/svg" xmlns:xlink="http://www.w3.org/1999/xlink">
<g id="graph0" class="graph" transform="scale(1 1) rotate(0) translate(4 158)">
<title>src/safety_pkg/src/safety_node.cpp</title>
<!-- Node1 -->
<g id="node1" class="node">
<title>Node1</title>
<g id="a_node1"><a xlink:title=" ">
<polygon fill="#bfbfbf" stroke="black" points="597.5,-123.5 597.5,-153.5 702.5,-153.5 702.5,-123.5 597.5,-123.5"/>
<text text-anchor="start" x="605.5" y="-141.5" font-family="Helvetica,sans-Serif" font-size="10.00">src/safety_pkg/src</text>
<text text-anchor="middle" x="650" y="-130.5" font-family="Helvetica,sans-Serif" font-size="10.00">/safety_node.cpp</text>
</a>
</g>
</g>
<!-- Node2 -->
<g id="node2" class="node">
<title>Node2</title>
<g id="a_node2"><a xlink:href="safety__node_8hpp.html" target="_top" xlink:title=" ">
<polygon fill="none" stroke="black" points="601,-67.5 601,-86.5 699,-86.5 699,-67.5 601,-67.5"/>
<text text-anchor="middle" x="650" y="-74.5" font-family="Helvetica,sans-Serif" font-size="10.00">safety_node.hpp</text>
</a>
</g>
</g>
<!-- Node1&#45;&gt;Node2 -->
<g id="edge1" class="edge">
<title>Node1&#45;&gt;Node2</title>
<path fill="none" stroke="midnightblue" d="M650,-123.4C650,-115.47 650,-105.46 650,-96.86"/>
<polygon fill="midnightblue" stroke="midnightblue" points="653.5,-96.66 650,-86.66 646.5,-96.66 653.5,-96.66"/>
</g>
<!-- Node3 -->
<g id="node3" class="node">
<title>Node3</title>
<g id="a_node3"><a xlink:title=" ">
<polygon fill="none" stroke="#bfbfbf" points="0,-6 0,-25 50,-25 50,-6 0,-6"/>
<text text-anchor="middle" x="25" y="-13" font-family="Helvetica,sans-Serif" font-size="10.00">chrono</text>
</a>
</g>
</g>
<!-- Node2&#45;&gt;Node3 -->
<g id="edge2" class="edge">
<title>Node2&#45;&gt;Node3</title>
<path fill="none" stroke="midnightblue" d="M600.73,-74.32C478.03,-69.79 161.34,-56 59,-31 56.49,-30.39 53.93,-29.61 51.4,-28.73"/>
<polygon fill="midnightblue" stroke="midnightblue" points="52.51,-25.41 41.92,-25 49.95,-31.92 52.51,-25.41"/>
</g>
<!-- Node4 -->
<g id="node4" class="node">
<title>Node4</title>
<g id="a_node4"><a xlink:title=" ">
<polygon fill="none" stroke="#bfbfbf" points="68,-6 68,-25 126,-25 126,-6 68,-6"/>
<text text-anchor="middle" x="97" y="-13" font-family="Helvetica,sans-Serif" font-size="10.00">memory</text>
</a>
</g>
</g>
<!-- Node2&#45;&gt;Node4 -->
<g id="edge3" class="edge">
<title>Node2&#45;&gt;Node4</title>
<path fill="none" stroke="midnightblue" d="M600.66,-76.2C508.12,-75.59 302.73,-69.54 135,-31 132,-30.31 128.92,-29.44 125.87,-28.46"/>
<polygon fill="midnightblue" stroke="midnightblue" points="126.99,-25.14 116.4,-25.09 124.65,-31.74 126.99,-25.14"/>
</g>
<!-- Node5 -->
<g id="node5" class="node">
<title>Node5</title>
<g id="a_node5"><a xlink:title=" ">
<polygon fill="none" stroke="#bfbfbf" points="144,-6 144,-25 188,-25 188,-6 144,-6"/>
<text text-anchor="middle" x="166" y="-13" font-family="Helvetica,sans-Serif" font-size="10.00">string</text>
</a>
</g>
</g>
<!-- Node2&#45;&gt;Node5 -->
<g id="edge4" class="edge">
<title>Node2&#45;&gt;Node5</title>
<path fill="none" stroke="midnightblue" d="M600.75,-76.5C516.47,-76.16 339.89,-70.28 197,-31 195.07,-30.47 193.1,-29.83 191.15,-29.11"/>
<polygon fill="midnightblue" stroke="midnightblue" points="192.27,-25.78 181.7,-25.1 189.53,-32.22 192.27,-25.78"/>
</g>
<!-- Node6 -->
<g id="node6" class="node">
<title>Node6</title>
<g id="a_node6"><a xlink:title=" ">
<polygon fill="none" stroke="#bfbfbf" points="206,-6 206,-25 254,-25 254,-6 206,-6"/>
<text text-anchor="middle" x="230" y="-13" font-family="Helvetica,sans-Serif" font-size="10.00">thread</text>
</a>
</g>
</g>
<!-- Node2&#45;&gt;Node6 -->
<g id="edge5" class="edge">
<title>Node2&#45;&gt;Node6</title>
<path fill="none" stroke="midnightblue" d="M600.85,-74.95C526.49,-72.33 381.49,-63.14 263,-31 260.71,-30.38 258.37,-29.62 256.05,-28.78"/>
<polygon fill="midnightblue" stroke="midnightblue" points="257.36,-25.54 246.78,-25.02 254.73,-32.03 257.36,-25.54"/>
</g>
<!-- Node7 -->
<g id="node7" class="node">
<title>Node7</title>
<g id="a_node7"><a xlink:title=" ">
<polygon fill="none" stroke="#bfbfbf" points="272.5,-0.5 272.5,-30.5 385.5,-30.5 385.5,-0.5 272.5,-0.5"/>
<text text-anchor="start" x="280.5" y="-18.5" font-family="Helvetica,sans-Serif" font-size="10.00">lifecycle_msgs/msg</text>
<text text-anchor="middle" x="329" y="-7.5" font-family="Helvetica,sans-Serif" font-size="10.00">/state.hpp</text>
</a>
</g>
</g>
<!-- Node2&#45;&gt;Node7 -->
<g id="edge6" class="edge">
<title>Node2&#45;&gt;Node7</title>
<path fill="none" stroke="midnightblue" d="M600.8,-68.03C551.28,-59.86 472.49,-46.45 395.55,-31.26"/>
<polygon fill="midnightblue" stroke="midnightblue" points="396.18,-27.82 385.69,-29.31 394.81,-34.69 396.18,-27.82"/>
</g>
<!-- Node8 -->
<g id="node8" class="node">
<title>Node8</title>
<g id="a_node8"><a xlink:title=" ">
<polygon fill="none" stroke="#bfbfbf" points="403.5,-0.5 403.5,-30.5 516.5,-30.5 516.5,-0.5 403.5,-0.5"/>
<text text-anchor="start" x="411.5" y="-18.5" font-family="Helvetica,sans-Serif" font-size="10.00">lifecycle_msgs/msg</text>
<text text-anchor="middle" x="460" y="-7.5" font-family="Helvetica,sans-Serif" font-size="10.00">/transition.hpp</text>
</a>
</g>
</g>
<!-- Node2&#45;&gt;Node8 -->
<g id="edge7" class="edge">
<title>Node2&#45;&gt;Node8</title>
<path fill="none" stroke="midnightblue" d="M622.78,-67.48C594.64,-58.66 549.95,-44.67 514.51,-33.57"/>
<polygon fill="midnightblue" stroke="midnightblue" points="515.37,-30.17 504.78,-30.52 513.28,-36.85 515.37,-30.17"/>
</g>
<!-- Node9 -->
<g id="node9" class="node">
<title>Node9</title>
<g id="a_node9"><a xlink:title=" ">
<polygon fill="none" stroke="#bfbfbf" points="534.5,-0.5 534.5,-30.5 641.5,-30.5 641.5,-0.5 534.5,-0.5"/>
<text text-anchor="start" x="542.5" y="-18.5" font-family="Helvetica,sans-Serif" font-size="10.00">lifecycle_msgs/srv</text>
<text text-anchor="middle" x="588" y="-7.5" font-family="Helvetica,sans-Serif" font-size="10.00">/change_state.hpp</text>
</a>
</g>
</g>
<!-- Node2&#45;&gt;Node9 -->
<g id="edge8" class="edge">
<title>Node2&#45;&gt;Node9</title>
<path fill="none" stroke="midnightblue" d="M641.12,-67.48C633.03,-59.72 620.76,-47.94 610.05,-37.66"/>
<polygon fill="midnightblue" stroke="midnightblue" points="612.25,-34.92 602.61,-30.52 607.4,-39.97 612.25,-34.92"/>
</g>
<!-- Node10 -->
<g id="node10" class="node">
<title>Node10</title>
<g id="a_node10"><a xlink:title=" ">
<polygon fill="none" stroke="#bfbfbf" points="659.5,-0.5 659.5,-30.5 766.5,-30.5 766.5,-0.5 659.5,-0.5"/>
<text text-anchor="start" x="667.5" y="-18.5" font-family="Helvetica,sans-Serif" font-size="10.00">lifecycle_msgs/srv</text>
<text text-anchor="middle" x="713" y="-7.5" font-family="Helvetica,sans-Serif" font-size="10.00">/get_state.hpp</text>
</a>
</g>
</g>
<!-- Node2&#45;&gt;Node10 -->
<g id="edge9" class="edge">
<title>Node2&#45;&gt;Node10</title>
<path fill="none" stroke="midnightblue" d="M659.03,-67.48C667.24,-59.72 679.71,-47.94 690.59,-37.66"/>
<polygon fill="midnightblue" stroke="midnightblue" points="693.29,-39.93 698.15,-30.52 688.48,-34.84 693.29,-39.93"/>
</g>
<!-- Node11 -->
<g id="node11" class="node">
<title>Node11</title>
<g id="a_node11"><a xlink:title=" ">
<polygon fill="none" stroke="#bfbfbf" points="785,-6 785,-25 927,-25 927,-6 785,-6"/>
<text text-anchor="middle" x="856" y="-13" font-family="Helvetica,sans-Serif" font-size="10.00">sensor_msgs/msg/joy.hpp</text>
</a>
</g>
</g>
<!-- Node2&#45;&gt;Node11 -->
<g id="edge10" class="edge">
<title>Node2&#45;&gt;Node11</title>
<path fill="none" stroke="midnightblue" d="M679.51,-67.48C715.62,-57.05 776.85,-39.36 816.85,-27.81"/>
<polygon fill="midnightblue" stroke="midnightblue" points="817.9,-31.15 826.54,-25.01 815.96,-24.42 817.9,-31.15"/>
</g>
<!-- Node12 -->
<g id="node12" class="node">
<title>Node12</title>
<g id="a_node12"><a xlink:title=" ">
<polygon fill="none" stroke="#bfbfbf" points="945,-0.5 945,-30.5 1093,-30.5 1093,-0.5 945,-0.5"/>
<text text-anchor="start" x="953" y="-18.5" font-family="Helvetica,sans-Serif" font-size="10.00">ecat_msgs/msg/gui_button</text>
<text text-anchor="middle" x="1019" y="-7.5" font-family="Helvetica,sans-Serif" font-size="10.00">_data.hpp</text>
</a>
</g>
</g>
<!-- Node2&#45;&gt;Node12 -->
<g id="edge11" class="edge">
<title>Node2&#45;&gt;Node12</title>
<path fill="none" stroke="midnightblue" d="M699.13,-68.53C754.08,-60.11 846,-45.86 934.82,-31.18"/>
<polygon fill="midnightblue" stroke="midnightblue" points="935.51,-34.61 944.8,-29.53 934.36,-27.71 935.51,-34.61"/>
</g>
<!-- Node13 -->
<g id="node13" class="node">
<title>Node13</title>
<g id="a_node13"><a xlink:title=" ">
<polygon fill="none" stroke="#bfbfbf" points="1111,-0.5 1111,-30.5 1229,-30.5 1229,-0.5 1111,-0.5"/>
<text text-anchor="start" x="1119" y="-18.5" font-family="Helvetica,sans-Serif" font-size="10.00">ecat_msgs/msg/data</text>
<text text-anchor="middle" x="1170" y="-7.5" font-family="Helvetica,sans-Serif" font-size="10.00">_received.hpp</text>
</a>
</g>
</g>
<!-- Node2&#45;&gt;Node13 -->
<g id="edge12" class="edge">
<title>Node2&#45;&gt;Node13</title>
<path fill="none" stroke="midnightblue" d="M699.05,-72.91C780.49,-67.38 948.86,-54.29 1100.75,-31.09"/>
<polygon fill="midnightblue" stroke="midnightblue" points="1101.39,-34.53 1110.73,-29.54 1100.32,-27.61 1101.39,-34.53"/>
</g>
<!-- Node14 -->
<g id="node14" class="node">
<title>Node14</title>
<g id="a_node14"><a xlink:title=" ">
<polygon fill="none" stroke="#bfbfbf" points="1247.5,-6 1247.5,-25 1346.5,-25 1346.5,-6 1247.5,-6"/>
<text text-anchor="middle" x="1297" y="-13" font-family="Helvetica,sans-Serif" font-size="10.00">rclcpp/rclcpp.hpp</text>
</a>
</g>
</g>
<!-- Node2&#45;&gt;Node14 -->
<g id="edge13" class="edge">
<title>Node2&#45;&gt;Node14</title>
<path fill="none" stroke="midnightblue" d="M699.11,-74.97C800.44,-72.24 1039.85,-62.71 1238,-31 1243.94,-30.05 1250.16,-28.8 1256.24,-27.44"/>
<polygon fill="midnightblue" stroke="midnightblue" points="1257.34,-30.78 1266.27,-25.07 1255.73,-23.96 1257.34,-30.78"/>
</g>
<!-- Node15 -->
<g id="node15" class="node">
<title>Node15</title>
<g id="a_node15"><a xlink:title=" ">
<polygon fill="none" stroke="#bfbfbf" points="1364.5,-6 1364.5,-25 1495.5,-25 1495.5,-6 1364.5,-6"/>
<text text-anchor="middle" x="1430" y="-13" font-family="Helvetica,sans-Serif" font-size="10.00">std_srvs/srv/trigger.hpp</text>
</a>
</g>
</g>
<!-- Node2&#45;&gt;Node15 -->
<g id="edge14" class="edge">
<title>Node2&#45;&gt;Node15</title>
<path fill="none" stroke="midnightblue" d="M699.43,-75.05C814.84,-72.37 1110.87,-62.69 1356,-31 1364.22,-29.94 1372.89,-28.52 1381.3,-26.97"/>
<polygon fill="midnightblue" stroke="midnightblue" points="1382.2,-30.37 1391.37,-25.05 1380.89,-23.49 1382.2,-30.37"/>
</g>
<!-- Node16 -->
<g id="node16" class="node">
<title>Node16</title>
<g id="a_node16"><a xlink:title=" ">
<polygon fill="none" stroke="#bfbfbf" points="1514,-6 1514,-25 1650,-25 1650,-6 1514,-6"/>
<text text-anchor="middle" x="1582" y="-13" font-family="Helvetica,sans-Serif" font-size="10.00">rcutils/logging_macros.h</text>
</a>
</g>
</g>
<!-- Node2&#45;&gt;Node16 -->
<g id="edge15" class="edge">
<title>Node2&#45;&gt;Node16</title>
<path fill="none" stroke="midnightblue" d="M699.35,-75.7C830.82,-74.41 1200.24,-67.55 1505,-31 1513.83,-29.94 1523.18,-28.48 1532.19,-26.88"/>
<polygon fill="midnightblue" stroke="midnightblue" points="1532.99,-30.3 1542.19,-25.04 1531.72,-23.41 1532.99,-30.3"/>
</g>
</g>
</svg>
