<?xml version="1.0" encoding="UTF-8" standalone="no"?>
<!DOCTYPE svg PUBLIC "-//W3C//DTD SVG 1.1//EN"
 "http://www.w3.org/Graphics/SVG/1.1/DTD/svg11.dtd">
<!-- Generated by graphviz version 2.49.3 (20211027.1534)
 -->
<!-- Title: src/safety_pkg/include/safety_pkg/safety_node.hpp Pages: 1 -->
<svg width="1532pt" height="106pt"
 viewBox="0.00 0.00 1532.00 106.00" xmlns="http://www.w3.org/2000/svg" xmlns:xlink="http://www.w3.org/1999/xlink">
<g id="graph0" class="graph" transform="scale(1 1) rotate(0) translate(4 102)">
<title>src/safety_pkg/include/safety_pkg/safety_node.hpp</title>
<!-- Node1 -->
<g id="node1" class="node">
<title>Node1</title>
<g id="a_node1"><a xlink:title=" ">
<polygon fill="#bfbfbf" stroke="black" points="535,-67.5 535,-97.5 675,-97.5 675,-67.5 535,-67.5"/>
<text text-anchor="start" x="543" y="-85.5" font-family="Helvetica,sans-Serif" font-size="10.00">src/safety_pkg/include</text>
<text text-anchor="middle" x="605" y="-74.5" font-family="Helvetica,sans-Serif" font-size="10.00">/safety_pkg/safety_node.hpp</text>
</a>
</g>
</g>
<!-- Node2 -->
<g id="node2" class="node">
<title>Node2</title>
<g id="a_node2"><a xlink:title=" ">
<polygon fill="none" stroke="#bfbfbf" points="0,-6 0,-25 46,-25 46,-6 0,-6"/>
<text text-anchor="middle" x="23" y="-13" font-family="Helvetica,sans-Serif" font-size="10.00">chrono</text>
</a>
</g>
</g>
<!-- Node1&#45;&gt;Node2 -->
<g id="edge1" class="edge">
<title>Node1&#45;&gt;Node2</title>
<path fill="none" stroke="midnightblue" d="M534.68,-82.46C428.82,-82.26 223.02,-75.43 55,-31 52.84,-30.43 50.65,-29.73 48.48,-28.94"/>
<polygon fill="midnightblue" stroke="midnightblue" points="49.8,-25.7 39.22,-25.11 47.12,-32.17 49.8,-25.7"/>
</g>
<!-- Node3 -->
<g id="node3" class="node">
<title>Node3</title>
<g id="a_node3"><a xlink:title=" ">
<polygon fill="none" stroke="#bfbfbf" points="64.5,-6 64.5,-25 115.5,-25 115.5,-6 64.5,-6"/>
<text text-anchor="middle" x="90" y="-13" font-family="Helvetica,sans-Serif" font-size="10.00">memory</text>
</a>
</g>
</g>
<!-- Node1&#45;&gt;Node3 -->
<g id="edge2" class="edge">
<title>Node1&#45;&gt;Node3</title>
<path fill="none" stroke="midnightblue" d="M534.94,-80.65C440.26,-78.04 266.84,-68.06 124,-31 121.64,-30.39 119.23,-29.64 116.85,-28.81"/>
<polygon fill="midnightblue" stroke="midnightblue" points="117.88,-25.45 107.3,-25.05 115.32,-31.97 117.88,-25.45"/>
</g>
<!-- Node4 -->
<g id="node4" class="node">
<title>Node4</title>
<g id="a_node4"><a xlink:title=" ">
<polygon fill="none" stroke="#bfbfbf" points="133.5,-6 133.5,-25 174.5,-25 174.5,-6 133.5,-6"/>
<text text-anchor="middle" x="154" y="-13" font-family="Helvetica,sans-Serif" font-size="10.00">string</text>
</a>
</g>
</g>
<!-- Node1&#45;&gt;Node4 -->
<g id="edge3" class="edge">
<title>Node1&#45;&gt;Node4</title>
<path fill="none" stroke="midnightblue" d="M534.68,-80.12C449.92,-76.86 303.93,-66.11 184,-31 182.13,-30.45 180.23,-29.8 178.34,-29.07"/>
<polygon fill="midnightblue" stroke="midnightblue" points="179.74,-25.87 169.18,-25.04 176.92,-32.27 179.74,-25.87"/>
</g>
<!-- Node5 -->
<g id="node5" class="node">
<title>Node5</title>
<g id="a_node5"><a xlink:title=" ">
<polygon fill="none" stroke="#bfbfbf" points="193,-6 193,-25 237,-25 237,-6 193,-6"/>
<text text-anchor="middle" x="215" y="-13" font-family="Helvetica,sans-Serif" font-size="10.00">thread</text>
</a>
</g>
</g>
<!-- Node1&#45;&gt;Node5 -->
<g id="edge4" class="edge">
<title>Node1&#45;&gt;Node5</title>
<path fill="none" stroke="midnightblue" d="M534.87,-77.81C461.54,-72.54 343.75,-60.02 246,-31 244.12,-30.44 242.21,-29.79 240.31,-29.07"/>
<polygon fill="midnightblue" stroke="midnightblue" points="241.62,-25.82 231.05,-25.11 238.87,-32.26 241.62,-25.82"/>
</g>
<!-- Node6 -->
<g id="node6" class="node">
<title>Node6</title>
<g id="a_node6"><a xlink:title=" ">
<polygon fill="none" stroke="#bfbfbf" points="255.5,-0.5 255.5,-30.5 358.5,-30.5 358.5,-0.5 255.5,-0.5"/>
<text text-anchor="start" x="263.5" y="-18.5" font-family="Helvetica,sans-Serif" font-size="10.00">lifecycle_msgs/msg</text>
<text text-anchor="middle" x="307" y="-7.5" font-family="Helvetica,sans-Serif" font-size="10.00">/state.hpp</text>
</a>
</g>
</g>
<!-- Node1&#45;&gt;Node6 -->
<g id="edge5" class="edge">
<title>Node1&#45;&gt;Node6</title>
<path fill="none" stroke="midnightblue" d="M536.41,-67.48C491.22,-58.11 430.49,-45.3 368.63,-31.34"/>
<polygon fill="midnightblue" stroke="midnightblue" points="369.22,-27.88 358.69,-29.09 367.67,-34.71 369.22,-27.88"/>
</g>
<!-- Node7 -->
<g id="node7" class="node">
<title>Node7</title>
<g id="a_node7"><a xlink:title=" ">
<polygon fill="none" stroke="#bfbfbf" points="376.5,-0.5 376.5,-30.5 479.5,-30.5 479.5,-0.5 376.5,-0.5"/>
<text text-anchor="start" x="384.5" y="-18.5" font-family="Helvetica,sans-Serif" font-size="10.00">lifecycle_msgs/msg</text>
<text text-anchor="middle" x="428" y="-7.5" font-family="Helvetica,sans-Serif" font-size="10.00">/transition.hpp</text>
</a>
</g>
</g>
<!-- Node1&#45;&gt;Node7 -->
<g id="edge6" class="edge">
<title>Node1&#45;&gt;Node7</title>
<path fill="none" stroke="midnightblue" d="M566.59,-67.4C540.04,-57.64 504.5,-44.59 476.07,-34.15"/>
<polygon fill="midnightblue" stroke="midnightblue" points="476.93,-30.74 466.33,-30.58 474.51,-37.31 476.93,-30.74"/>
</g>
<!-- Node8 -->
<g id="node8" class="node">
<title>Node8</title>
<g id="a_node8"><a xlink:title=" ">
<polygon fill="none" stroke="#bfbfbf" points="498,-0.5 498,-30.5 596,-30.5 596,-0.5 498,-0.5"/>
<text text-anchor="start" x="506" y="-18.5" font-family="Helvetica,sans-Serif" font-size="10.00">lifecycle_msgs/srv</text>
<text text-anchor="middle" x="547" y="-7.5" font-family="Helvetica,sans-Serif" font-size="10.00">/change_state.hpp</text>
</a>
</g>
</g>
<!-- Node1&#45;&gt;Node8 -->
<g id="edge7" class="edge">
<title>Node1&#45;&gt;Node8</title>
<path fill="none" stroke="midnightblue" d="M592.41,-67.4C584.81,-58.88 574.97,-47.85 566.39,-38.23"/>
<polygon fill="midnightblue" stroke="midnightblue" points="568.83,-35.71 559.56,-30.58 563.61,-40.37 568.83,-35.71"/>
</g>
<!-- Node9 -->
<g id="node9" class="node">
<title>Node9</title>
<g id="a_node9"><a xlink:title=" ">
<polygon fill="none" stroke="#bfbfbf" points="614,-0.5 614,-30.5 712,-30.5 712,-0.5 614,-0.5"/>
<text text-anchor="start" x="622" y="-18.5" font-family="Helvetica,sans-Serif" font-size="10.00">lifecycle_msgs/srv</text>
<text text-anchor="middle" x="663" y="-7.5" font-family="Helvetica,sans-Serif" font-size="10.00">/get_state.hpp</text>
</a>
</g>
</g>
<!-- Node1&#45;&gt;Node9 -->
<g id="edge8" class="edge">
<title>Node1&#45;&gt;Node9</title>
<path fill="none" stroke="midnightblue" d="M617.59,-67.4C625.19,-58.88 635.03,-47.85 643.61,-38.23"/>
<polygon fill="midnightblue" stroke="midnightblue" points="646.39,-40.37 650.44,-30.58 641.17,-35.71 646.39,-40.37"/>
</g>
<!-- Node10 -->
<g id="node10" class="node">
<title>Node10</title>
<g id="a_node10"><a xlink:title=" ">
<polygon fill="none" stroke="#bfbfbf" points="730,-6 730,-25 860,-25 860,-6 730,-6"/>
<text text-anchor="middle" x="795" y="-13" font-family="Helvetica,sans-Serif" font-size="10.00">sensor_msgs/msg/joy.hpp</text>
</a>
</g>
</g>
<!-- Node1&#45;&gt;Node10 -->
<g id="edge9" class="edge">
<title>Node1&#45;&gt;Node10</title>
<path fill="none" stroke="midnightblue" d="M646.23,-67.4C680.3,-55.74 728.14,-39.37 760.29,-28.38"/>
<polygon fill="midnightblue" stroke="midnightblue" points="761.8,-31.56 770.13,-25.01 759.54,-24.93 761.8,-31.56"/>
</g>
<!-- Node11 -->
<g id="node11" class="node">
<title>Node11</title>
<g id="a_node11"><a xlink:title=" ">
<polygon fill="none" stroke="#bfbfbf" points="878,-0.5 878,-30.5 1012,-30.5 1012,-0.5 878,-0.5"/>
<text text-anchor="start" x="886" y="-18.5" font-family="Helvetica,sans-Serif" font-size="10.00">ecat_msgs/msg/gui_button</text>
<text text-anchor="middle" x="945" y="-7.5" font-family="Helvetica,sans-Serif" font-size="10.00">_data.hpp</text>
</a>
</g>
</g>
<!-- Node1&#45;&gt;Node11 -->
<g id="edge10" class="edge">
<title>Node1&#45;&gt;Node11</title>
<path fill="none" stroke="midnightblue" d="M675.04,-68.11C731.27,-57.36 810.13,-42.28 868.11,-31.2"/>
<polygon fill="midnightblue" stroke="midnightblue" points="868.78,-34.63 877.95,-29.32 867.47,-27.76 868.78,-34.63"/>
</g>
<!-- Node12 -->
<g id="node12" class="node">
<title>Node12</title>
<g id="a_node12"><a xlink:title=" ">
<polygon fill="none" stroke="#bfbfbf" points="1030,-0.5 1030,-30.5 1138,-30.5 1138,-0.5 1030,-0.5"/>
<text text-anchor="start" x="1038" y="-18.5" font-family="Helvetica,sans-Serif" font-size="10.00">ecat_msgs/msg/data</text>
<text text-anchor="middle" x="1084" y="-7.5" font-family="Helvetica,sans-Serif" font-size="10.00">_received.hpp</text>
</a>
</g>
</g>
<!-- Node1&#45;&gt;Node12 -->
<g id="edge11" class="edge">
<title>Node1&#45;&gt;Node12</title>
<path fill="none" stroke="midnightblue" d="M675.26,-75.25C756.13,-67.55 893.08,-52.93 1019.89,-31.08"/>
<polygon fill="midnightblue" stroke="midnightblue" points="1020.53,-34.53 1029.78,-29.36 1019.33,-27.63 1020.53,-34.53"/>
</g>
<!-- Node13 -->
<g id="node13" class="node">
<title>Node13</title>
<g id="a_node13"><a xlink:title=" ">
<polygon fill="none" stroke="#bfbfbf" points="1156,-6 1156,-25 1246,-25 1246,-6 1156,-6"/>
<text text-anchor="middle" x="1201" y="-13" font-family="Helvetica,sans-Serif" font-size="10.00">rclcpp/rclcpp.hpp</text>
</a>
</g>
</g>
<!-- Node1&#45;&gt;Node13 -->
<g id="edge12" class="edge">
<title>Node1&#45;&gt;Node13</title>
<path fill="none" stroke="midnightblue" d="M675.24,-78.76C779.08,-73.85 979.34,-61.1 1147,-31 1152.18,-30.07 1157.59,-28.88 1162.9,-27.59"/>
<polygon fill="midnightblue" stroke="midnightblue" points="1164.09,-30.9 1172.9,-25.01 1162.34,-24.12 1164.09,-30.9"/>
</g>
<!-- Node14 -->
<g id="node14" class="node">
<title>Node14</title>
<g id="a_node14"><a xlink:title=" ">
<polygon fill="none" stroke="#bfbfbf" points="1264.5,-6 1264.5,-25 1383.5,-25 1383.5,-6 1264.5,-6"/>
<text text-anchor="middle" x="1324" y="-13" font-family="Helvetica,sans-Serif" font-size="10.00">std_srvs/srv/trigger.hpp</text>
</a>
</g>
</g>
<!-- Node1&#45;&gt;Node14 -->
<g id="edge13" class="edge">
<title>Node1&#45;&gt;Node14</title>
<path fill="none" stroke="midnightblue" d="M675.06,-79.03C794.56,-74.17 1045.2,-61.06 1255,-31 1262.41,-29.94 1270.23,-28.55 1277.82,-27.07"/>
<polygon fill="midnightblue" stroke="midnightblue" points="1278.53,-30.49 1287.63,-25.06 1277.13,-23.63 1278.53,-30.49"/>
</g>
<!-- Node15 -->
<g id="node15" class="node">
<title>Node15</title>
<g id="a_node15"><a xlink:title=" ">
<polygon fill="none" stroke="#bfbfbf" points="1402,-6 1402,-25 1524,-25 1524,-6 1402,-6"/>
<text text-anchor="middle" x="1463" y="-13" font-family="Helvetica,sans-Serif" font-size="10.00">rcutils/logging_macros.h</text>
</a>
</g>
</g>
<!-- Node1&#45;&gt;Node15 -->
<g id="edge14" class="edge">
<title>Node1&#45;&gt;Node15</title>
<path fill="none" stroke="midnightblue" d="M675.16,-80.3C813.21,-77.21 1129.61,-66.54 1393,-31 1400.61,-29.97 1408.63,-28.6 1416.42,-27.1"/>
<polygon fill="midnightblue" stroke="midnightblue" points="1417.36,-30.48 1426.47,-25.08 1415.98,-23.62 1417.36,-30.48"/>
</g>
</g>
</svg>
